<svg width="502" height="402" viewBox="0 0 502 402" fill="none" xmlns="http://www.w3.org/2000/svg">
<g clip-path="url(#clip0_763_6)">
<path d="M0 20C0 8.9543 8.95431 0 20 0H482C493.046 0 502 8.95431 502 20V382C502 393.046 493.046 402 482 402H20C8.95431 402 0 393.046 0 382V20Z" fill="#172840"/>
<rect width="502" height="402" fill="url(#paint0_radial_763_6)"/>
<rect width="502" height="402" fill="url(#paint1_linear_763_6)"/>
<rect width="502" height="402" fill="url(#paint2_linear_763_6)"/>
<rect width="12" height="1" transform="translate(17.8555 23.1914)" fill="#5899E2" fill-opacity="0.5"/>
<path d="M39.5855 27.3114C38.9255 27.3114 38.3521 27.1614 37.8655 26.8614C37.3788 26.5547 37.0021 26.1314 36.7355 25.5914C36.4755 25.0447 36.3455 24.4114 36.3455 23.6914C36.3455 22.9714 36.4755 22.3414 36.7355 21.8014C37.0021 21.2547 37.3788 20.8314 37.8655 20.5314C38.3521 20.2247 38.9255 20.0714 39.5855 20.0714C40.3855 20.0714 41.0321 20.2614 41.5255 20.6414C42.0188 21.0214 42.3355 21.5581 42.4755 22.2514H41.5655C41.4521 21.8181 41.2321 21.4714 40.9055 21.2114C40.5855 20.9447 40.1455 20.8114 39.5855 20.8114C39.1055 20.8114 38.6855 20.9281 38.3255 21.1614C37.9655 21.3881 37.6888 21.7181 37.4955 22.1514C37.3021 22.5781 37.2055 23.0914 37.2055 23.6914C37.2055 24.2914 37.3021 24.8081 37.4955 25.2414C37.6888 25.6681 37.9655 25.9981 38.3255 26.2314C38.6855 26.4581 39.1055 26.5714 39.5855 26.5714C40.1455 26.5714 40.5855 26.4447 40.9055 26.1914C41.2321 25.9314 41.4521 25.5881 41.5655 25.1614H42.4755C42.3355 25.8347 42.0188 26.3614 41.5255 26.7414C41.0321 27.1214 40.3855 27.3114 39.5855 27.3114ZM44.3088 27.1914L46.8888 20.1914H47.7788L50.3488 27.1914H49.4488L47.3288 21.2414L45.1888 27.1914H44.3088ZM45.4888 25.3914L45.7288 24.7114H48.8988L49.1388 25.3914H45.4888ZM52.6192 27.1914V20.1914H54.8792C55.4259 20.1914 55.8726 20.2847 56.2192 20.4714C56.5659 20.6514 56.8226 20.8947 56.9892 21.2014C57.1559 21.5081 57.2392 21.8547 57.2392 22.2414C57.2392 22.6147 57.1526 22.9581 56.9792 23.2714C56.8126 23.5847 56.5526 23.8347 56.1992 24.0214C55.8459 24.2081 55.3926 24.3014 54.8392 24.3014H53.4592V27.1914H52.6192ZM56.3192 27.1914L54.7792 24.0614H55.7192L57.3092 27.1914H56.3192ZM53.4592 23.6414H54.8192C55.3526 23.6414 55.7426 23.5114 55.9892 23.2514C56.2426 22.9914 56.3692 22.6581 56.3692 22.2514C56.3692 21.8381 56.2459 21.5114 55.9992 21.2714C55.7592 21.0247 55.3626 20.9014 54.8092 20.9014H53.4592V23.6414ZM59.786 27.1914V20.1914H60.626V27.1914H59.786ZM63.3591 27.1914V20.1914H65.8191C66.3124 20.1914 66.7191 20.2714 67.0391 20.4314C67.3657 20.5847 67.6091 20.7981 67.7691 21.0714C67.9291 21.3381 68.0091 21.6381 68.0091 21.9714C68.0091 22.3314 67.9291 22.6314 67.7691 22.8714C67.6157 23.1114 67.4124 23.2947 67.1591 23.4214C66.9124 23.5481 66.6491 23.6247 66.3691 23.6514L66.5091 23.5514C66.8091 23.5581 67.0857 23.6381 67.3391 23.7914C67.5924 23.9447 67.7924 24.1514 67.9391 24.4114C68.0924 24.6714 68.1691 24.9614 68.1691 25.2814C68.1691 25.6347 68.0824 25.9581 67.9091 26.2514C67.7357 26.5381 67.4791 26.7681 67.1391 26.9414C66.8057 27.1081 66.3924 27.1914 65.8991 27.1914H63.3591ZM64.1991 26.4914H65.8091C66.2824 26.4914 66.6491 26.3814 66.9091 26.1614C67.1757 25.9347 67.3091 25.6214 67.3091 25.2214C67.3091 24.8281 67.1724 24.5147 66.8991 24.2814C66.6324 24.0414 66.2624 23.9214 65.7891 23.9214H64.1991V26.4914ZM64.1991 23.2514H65.7591C66.2124 23.2514 66.5557 23.1447 66.7891 22.9314C67.0291 22.7181 67.1491 22.4281 67.1491 22.0614C67.1491 21.7081 67.0291 21.4247 66.7891 21.2114C66.5557 20.9981 66.2024 20.8914 65.7291 20.8914H64.1991V23.2514ZM70.6138 27.1914V20.1914H73.0738C73.5671 20.1914 73.9738 20.2714 74.2938 20.4314C74.6204 20.5847 74.8638 20.7981 75.0238 21.0714C75.1838 21.3381 75.2638 21.6381 75.2638 21.9714C75.2638 22.3314 75.1838 22.6314 75.0238 22.8714C74.8704 23.1114 74.6671 23.2947 74.4138 23.4214C74.1671 23.5481 73.9038 23.6247 73.6238 23.6514L73.7638 23.5514C74.0638 23.5581 74.3404 23.6381 74.5938 23.7914C74.8471 23.9447 75.0471 24.1514 75.1938 24.4114C75.3471 24.6714 75.4238 24.9614 75.4238 25.2814C75.4238 25.6347 75.3371 25.9581 75.1638 26.2514C74.9904 26.5381 74.7338 26.7681 74.3938 26.9414C74.0604 27.1081 73.6471 27.1914 73.1538 27.1914H70.6138ZM71.4538 26.4914H73.0638C73.5371 26.4914 73.9038 26.3814 74.1638 26.1614C74.4304 25.9347 74.5638 25.6214 74.5638 25.2214C74.5638 24.8281 74.4271 24.5147 74.1538 24.2814C73.8871 24.0414 73.5171 23.9214 73.0438 23.9214H71.4538V26.4914ZM71.4538 23.2514H73.0138C73.4671 23.2514 73.8104 23.1447 74.0438 22.9314C74.2838 22.7181 74.4038 22.4281 74.4038 22.0614C74.4038 21.7081 74.2838 21.4247 74.0438 21.2114C73.8104 20.9981 73.4571 20.8914 72.9838 20.8914H71.4538V23.2514ZM77.8684 27.1914V20.1914H82.1984V20.8814H78.7084V23.3214H81.8984V24.0014H78.7084V26.5014H82.1984V27.1914H77.8684ZM84.292 27.1914L86.872 20.1914H87.762L90.332 27.1914H89.432L87.312 21.2414L85.172 27.1914H84.292ZM85.472 25.3914L85.712 24.7114H88.882L89.122 25.3914H85.472ZM92.6024 27.1914V20.1914H93.4424L97.1724 25.8114V20.1914H98.0124V27.1914H97.1724L93.4424 21.5714V27.1914H92.6024ZM107.582 27.3114C106.922 27.3114 106.348 27.1614 105.862 26.8614C105.375 26.5547 104.998 26.1314 104.732 25.5914C104.472 25.0447 104.342 24.4114 104.342 23.6914C104.342 22.9714 104.472 22.3414 104.732 21.8014C104.998 21.2547 105.375 20.8314 105.862 20.5314C106.348 20.2247 106.922 20.0714 107.582 20.0714C108.382 20.0714 109.028 20.2614 109.522 20.6414C110.015 21.0214 110.332 21.5581 110.472 22.2514H109.562C109.448 21.8181 109.228 21.4714 108.902 21.2114C108.582 20.9447 108.142 20.8114 107.582 20.8114C107.102 20.8114 106.682 20.9281 106.322 21.1614C105.962 21.3881 105.685 21.7181 105.492 22.1514C105.298 22.5781 105.202 23.0914 105.202 23.6914C105.202 24.2914 105.298 24.8081 105.492 25.2414C105.685 25.6681 105.962 25.9981 106.322 26.2314C106.682 26.4581 107.102 26.5714 107.582 26.5714C108.142 26.5714 108.582 26.4447 108.902 26.1914C109.228 25.9314 109.448 25.5881 109.562 25.1614H110.472C110.332 25.8347 110.015 26.3614 109.522 26.7414C109.028 27.1214 108.382 27.3114 107.582 27.3114ZM115.921 27.3114C115.274 27.3114 114.704 27.1614 114.211 26.8614C113.718 26.5547 113.334 26.1314 113.061 25.5914C112.788 25.0447 112.651 24.4114 112.651 23.6914C112.651 22.9781 112.788 22.3514 113.061 21.8114C113.334 21.2647 113.718 20.8381 114.211 20.5314C114.704 20.2247 115.274 20.0714 115.921 20.0714C116.581 20.0714 117.154 20.2247 117.641 20.5314C118.134 20.8381 118.514 21.2647 118.781 21.8114C119.054 22.3514 119.191 22.9781 119.191 23.6914C119.191 24.4114 119.054 25.0447 118.781 25.5914C118.514 26.1314 118.134 26.5547 117.641 26.8614C117.154 27.1614 116.581 27.3114 115.921 27.3114ZM115.921 26.5714C116.408 26.5714 116.831 26.4581 117.191 26.2314C117.551 25.9981 117.831 25.6681 118.031 25.2414C118.231 24.8081 118.331 24.2914 118.331 23.6914C118.331 23.0914 118.231 22.5781 118.031 22.1514C117.831 21.7181 117.551 21.3881 117.191 21.1614C116.831 20.9347 116.408 20.8214 115.921 20.8214C115.441 20.8214 115.018 20.9347 114.651 21.1614C114.291 21.3881 114.011 21.7181 113.811 22.1514C113.611 22.5781 113.511 23.0914 113.511 23.6914C113.511 24.2914 113.611 24.8081 113.811 25.2414C114.011 25.6681 114.291 25.9981 114.651 26.2314C115.018 26.4581 115.441 26.5714 115.921 26.5714ZM123.467 27.1914L120.837 20.1914H121.747L123.957 26.3014L126.187 20.1914H127.077L124.447 27.1914H123.467ZM129.276 27.1914V20.1914H133.606V20.8814H130.116V23.3214H133.306V24.0014H130.116V26.5014H133.606V27.1914H129.276ZM136.16 27.1914V20.1914H138.42C138.967 20.1914 139.413 20.2847 139.76 20.4714C140.107 20.6514 140.363 20.8947 140.53 21.2014C140.697 21.5081 140.78 21.8547 140.78 22.2414C140.78 22.6147 140.693 22.9581 140.52 23.2714C140.353 23.5847 140.093 23.8347 139.74 24.0214C139.387 24.2081 138.933 24.3014 138.38 24.3014H137V27.1914H136.16ZM139.86 27.1914L138.32 24.0614H139.26L140.85 27.1914H139.86ZM137 23.6414H138.36C138.893 23.6414 139.283 23.5114 139.53 23.2514C139.783 22.9914 139.91 22.6581 139.91 22.2514C139.91 21.8381 139.787 21.5114 139.54 21.2714C139.3 21.0247 138.903 20.9014 138.35 20.9014H137V23.6414ZM142.867 27.1914L145.447 20.1914H146.337L148.907 27.1914H148.007L145.887 21.2414L143.747 27.1914H142.867ZM144.047 25.3914L144.287 24.7114H147.457L147.697 25.3914H144.047ZM153.777 27.3114C153.123 27.3114 152.55 27.1614 152.057 26.8614C151.563 26.5547 151.18 26.1314 150.907 25.5914C150.633 25.0514 150.497 24.4214 150.497 23.7014C150.497 22.9881 150.633 22.3581 150.907 21.8114C151.187 21.2647 151.58 20.8381 152.087 20.5314C152.6 20.2247 153.203 20.0714 153.897 20.0714C154.683 20.0714 155.34 20.2614 155.867 20.6414C156.393 21.0147 156.73 21.5381 156.877 22.2114H155.907C155.813 21.7914 155.593 21.4581 155.247 21.2114C154.9 20.9647 154.45 20.8414 153.897 20.8414C153.383 20.8414 152.933 20.9581 152.547 21.1914C152.167 21.4181 151.873 21.7447 151.667 22.1714C151.46 22.5981 151.357 23.1081 151.357 23.7014C151.357 24.2947 151.46 24.8081 151.667 25.2414C151.873 25.6681 152.16 25.9947 152.527 26.2214C152.9 26.4481 153.327 26.5614 153.807 26.5614C154.553 26.5614 155.117 26.3414 155.497 25.9014C155.877 25.4614 156.093 24.8647 156.147 24.1114H154.127V23.4514H157.007V27.1914H156.237L156.167 26.0414C156 26.3147 155.807 26.5481 155.587 26.7414C155.373 26.9281 155.12 27.0714 154.827 27.1714C154.533 27.2647 154.183 27.3114 153.777 27.3114ZM159.584 27.1914V20.1914H163.914V20.8814H160.424V23.3214H163.614V24.0014H160.424V26.5014H163.914V27.1914H159.584Z" fill="white" fill-opacity="0.4"/>
<g clip-path="url(#clip1_763_6)">
<path d="M257.971 424.118C361.942 424.118 446.227 339.833 446.227 235.862C446.227 131.891 361.942 47.6062 257.971 47.6062C154 47.6062 69.7148 131.891 69.7148 235.862C69.7148 339.833 154 424.118 257.971 424.118Z" stroke="#5899E2" stroke-opacity="0.04" stroke-width="55.7796"/>
<path d="M257.973 347.421C319.586 347.421 369.532 297.475 369.532 235.862C369.532 174.25 319.586 124.303 257.973 124.303C196.361 124.303 146.414 174.25 146.414 235.862C146.414 297.475 196.361 347.421 257.973 347.421Z" stroke="#5899E2" stroke-opacity="0.03" stroke-width="1.39449" stroke-dasharray="5.58 11.16"/>
<path d="M22.3047 95.0188C33.4606 82.4684 64.1394 74.1014 97.6071 71.3125C133.864 68.5235 164.543 71.3125 188.249 79.6794C200.799 85.2574 207.772 95.0188 204.983 107.569C199.405 118.725 178.487 125.698 145.02 125.698C111.552 125.698 76.6898 121.514 47.4055 113.147L22.3047 95.0188Z" fill="#5899E2" fill-opacity="0.13" stroke="#5899E2" stroke-opacity="0.55" stroke-width="1.39449"/>
<path d="M103.856 100.575C103.113 100.575 102.466 100.407 101.915 100.073C101.372 99.7307 100.952 99.2584 100.655 98.656C100.357 98.0461 100.208 97.3396 100.208 96.5363C100.208 95.7331 100.357 95.0303 100.655 94.4279C100.952 93.818 101.372 93.3458 101.915 93.0111C102.466 92.669 103.113 92.4979 103.856 92.4979C104.749 92.4979 105.47 92.7099 106.021 93.1338C106.571 93.5577 106.924 94.1564 107.081 94.9299H106.065C105.939 94.4465 105.693 94.0597 105.329 93.7697C104.972 93.4722 104.481 93.3234 103.856 93.3234C103.314 93.3234 102.838 93.4536 102.428 93.7139C102.027 93.9668 101.715 94.3349 101.491 94.8183C101.276 95.2943 101.168 95.867 101.168 96.5363C101.168 97.2057 101.276 97.7821 101.491 98.2655C101.715 98.7415 102.027 99.1096 102.428 99.37C102.838 99.6228 103.314 99.7493 103.856 99.7493C104.481 99.7493 104.972 99.6079 105.329 99.3253C105.693 99.0353 105.939 98.6523 106.065 98.1763H107.081C106.924 98.9274 106.571 99.515 106.021 99.9389C105.47 100.363 104.749 100.575 103.856 100.575ZM110.493 100.575C110.062 100.575 109.682 100.493 109.355 100.329C109.035 100.158 108.786 99.9017 108.608 99.5596C108.437 99.21 108.351 98.775 108.351 98.2544V94.6845H109.288V98.154C109.288 98.6969 109.411 99.1022 109.656 99.37C109.909 99.6377 110.259 99.7716 110.705 99.7716C111.01 99.7716 111.281 99.7009 111.519 99.5596C111.765 99.4109 111.958 99.1989 112.099 98.9237C112.248 98.6485 112.323 98.3101 112.323 97.9085V94.6845H113.26V100.441H112.412L112.356 99.4815C112.192 99.8311 111.947 100.103 111.62 100.296C111.292 100.482 110.917 100.575 110.493 100.575ZM117.758 100.575C117.423 100.575 117.126 100.526 116.865 100.43C116.612 100.326 116.393 100.195 116.207 100.039C116.021 99.8757 115.872 99.7046 115.761 99.5261L115.672 100.441H114.824V92.4087H115.761V95.5993C115.939 95.2794 116.2 95.0266 116.542 94.8407C116.891 94.6473 117.293 94.5506 117.747 94.5506C118.289 94.5506 118.762 94.6807 119.163 94.9411C119.572 95.1939 119.888 95.5472 120.112 96.0009C120.335 96.4471 120.446 96.964 120.446 97.5515C120.446 98.1316 120.335 98.6523 120.112 99.1134C119.888 99.567 119.572 99.924 119.163 100.184C118.762 100.445 118.293 100.575 117.758 100.575ZM117.646 99.7604C118.003 99.7604 118.319 99.6712 118.594 99.4927C118.87 99.3142 119.085 99.0613 119.241 98.7341C119.405 98.3994 119.487 98.0089 119.487 97.5627C119.487 97.1165 119.405 96.7297 119.241 96.4025C119.085 96.0678 118.87 95.8112 118.594 95.6327C118.319 95.4542 118.003 95.365 117.646 95.365C117.274 95.365 116.947 95.4542 116.664 95.6327C116.389 95.8112 116.174 96.0678 116.017 96.4025C115.869 96.7297 115.794 97.1165 115.794 97.5627C115.794 98.0089 115.869 98.3994 116.017 98.7341C116.174 99.0613 116.389 99.3142 116.664 99.4927C116.947 99.6712 117.274 99.7604 117.646 99.7604ZM123.626 100.575C123.172 100.575 122.793 100.493 122.488 100.329C122.191 100.166 121.967 99.9501 121.819 99.6823C121.67 99.4071 121.596 99.1096 121.596 98.7898C121.596 98.4105 121.692 98.087 121.886 97.8193C122.086 97.5515 122.365 97.347 122.722 97.2057C123.087 97.0644 123.507 96.9937 123.983 96.9937H125.456C125.456 96.6219 125.407 96.3169 125.31 96.079C125.214 95.8335 125.065 95.6513 124.864 95.5323C124.663 95.4059 124.403 95.3427 124.083 95.3427C123.734 95.3427 123.436 95.4282 123.191 95.5993C122.945 95.7703 122.793 96.0232 122.733 96.3579H121.774C121.819 95.9637 121.949 95.6327 122.165 95.365C122.388 95.0972 122.667 94.8964 123.001 94.7626C123.343 94.6213 123.704 94.5506 124.083 94.5506C124.604 94.5506 125.035 94.6473 125.377 94.8407C125.72 95.0266 125.972 95.2906 126.136 95.6327C126.307 95.9674 126.393 96.3616 126.393 96.8152V100.441H125.556L125.5 99.4369C125.426 99.5931 125.329 99.7418 125.21 99.8831C125.099 100.017 124.965 100.136 124.808 100.24C124.66 100.344 124.485 100.426 124.284 100.486C124.083 100.545 123.864 100.575 123.626 100.575ZM123.76 99.7827C124.013 99.7827 124.243 99.7269 124.451 99.6154C124.66 99.5038 124.838 99.3551 124.987 99.1691C125.143 98.9832 125.258 98.7712 125.333 98.5333C125.415 98.2953 125.456 98.0498 125.456 97.797V97.7189H124.061C123.711 97.7189 123.425 97.7635 123.202 97.8527C122.979 97.942 122.819 98.0647 122.722 98.2209C122.626 98.3771 122.577 98.5519 122.577 98.7452C122.577 98.9535 122.622 99.1357 122.711 99.2919C122.808 99.448 122.942 99.5708 123.113 99.66C123.291 99.7418 123.507 99.7827 123.76 99.7827Z" fill="white" fill-opacity="0.7"/>
<path d="M114.34 100.597C116.65 100.597 118.523 98.7239 118.523 96.4134C118.523 94.103 116.65 92.23 114.34 92.23C112.029 92.23 110.156 94.103 110.156 96.4134C110.156 98.7239 112.029 100.597 114.34 100.597Z" fill="#5899E2" fill-opacity="0.25"/>
<path d="M114.338 88.9235C115.724 88.9235 116.848 87.7997 116.848 86.4134C116.848 85.0271 115.724 83.9033 114.338 83.9033C112.952 83.9033 111.828 85.0271 111.828 86.4134C111.828 87.7997 112.952 88.9235 114.338 88.9235Z" fill="#5899E2"/>
<path d="M126.89 170.321C132.468 163.349 147.807 159.165 161.752 161.954C172.908 164.743 177.091 174.505 172.908 182.872C167.33 189.844 150.596 189.844 138.046 185.661C128.284 181.477 122.706 177.294 126.89 170.321Z" fill="#5899E2" fill-opacity="0.13" stroke="#5899E2" stroke-opacity="0.52" stroke-width="1.25504"/>
<path d="M133.186 203.061C132.747 203.061 132.367 202.978 132.046 202.81C131.733 202.643 131.489 202.402 131.314 202.089C131.147 201.775 131.063 201.402 131.063 200.97H131.952C131.952 201.214 131.991 201.437 132.067 201.639C132.151 201.834 132.28 201.991 132.454 202.11C132.636 202.221 132.876 202.277 133.176 202.277C133.469 202.277 133.699 202.221 133.866 202.11C134.04 201.998 134.162 201.848 134.232 201.66C134.309 201.465 134.347 201.245 134.347 201.001V195.615H135.226V201.001C135.226 201.656 135.044 202.165 134.682 202.528C134.326 202.883 133.828 203.061 133.186 203.061ZM138.477 203.061C138.052 203.061 137.7 202.985 137.421 202.831C137.142 202.678 136.933 202.472 136.793 202.214C136.654 201.956 136.584 201.677 136.584 201.377C136.584 201.015 136.675 200.708 136.856 200.457C137.044 200.206 137.306 200.014 137.64 199.882C137.975 199.749 138.369 199.683 138.822 199.683H140.192C140.192 199.335 140.147 199.045 140.056 198.815C139.973 198.585 139.833 198.414 139.638 198.303C139.45 198.184 139.206 198.125 138.906 198.125C138.585 198.125 138.31 198.205 138.08 198.365C137.85 198.519 137.707 198.752 137.651 199.066H136.752C136.793 198.704 136.915 198.397 137.118 198.146C137.327 197.895 137.588 197.706 137.902 197.581C138.216 197.448 138.55 197.382 138.906 197.382C139.394 197.382 139.798 197.473 140.119 197.654C140.447 197.828 140.687 198.076 140.841 198.397C140.994 198.71 141.071 199.08 141.071 199.505V202.936H140.287L140.234 201.995C140.165 202.141 140.074 202.28 139.962 202.413C139.858 202.538 139.732 202.65 139.586 202.748C139.439 202.845 139.272 202.922 139.084 202.978C138.903 203.033 138.7 203.061 138.477 203.061ZM138.603 202.319C138.84 202.319 139.056 202.266 139.251 202.162C139.446 202.057 139.614 201.918 139.753 201.744C139.9 201.562 140.008 201.364 140.077 201.147C140.154 200.924 140.192 200.691 140.192 200.447V200.363H138.896C138.561 200.363 138.289 200.405 138.08 200.488C137.878 200.572 137.731 200.687 137.64 200.834C137.55 200.98 137.505 201.147 137.505 201.336C137.505 201.538 137.546 201.712 137.63 201.859C137.714 202.005 137.839 202.12 138.007 202.204C138.174 202.28 138.373 202.319 138.603 202.319ZM142.502 202.936V197.508H143.297L143.339 198.261C143.506 197.982 143.733 197.766 144.018 197.612C144.304 197.459 144.608 197.382 144.928 197.382C145.193 197.382 145.434 197.421 145.65 197.497C145.866 197.567 146.054 197.679 146.215 197.832C146.375 197.978 146.504 198.163 146.602 198.386C146.783 198.059 147.031 197.811 147.344 197.644C147.658 197.469 147.989 197.382 148.338 197.382C148.742 197.382 149.091 197.462 149.384 197.623C149.677 197.776 149.903 198.013 150.064 198.334C150.224 198.655 150.304 199.059 150.304 199.547V202.936H149.436V199.641C149.436 199.132 149.328 198.756 149.112 198.512C148.896 198.261 148.599 198.135 148.223 198.135C147.965 198.135 147.731 198.202 147.522 198.334C147.313 198.466 147.146 198.665 147.02 198.93C146.902 199.195 146.842 199.516 146.842 199.892V202.936H145.964V199.641C145.964 199.132 145.856 198.756 145.64 198.512C145.423 198.261 145.127 198.135 144.751 198.135C144.5 198.135 144.269 198.202 144.06 198.334C143.858 198.466 143.694 198.665 143.569 198.93C143.443 199.195 143.381 199.516 143.381 199.892V202.936H142.502ZM153.45 203.061C153.025 203.061 152.673 202.985 152.394 202.831C152.115 202.678 151.906 202.472 151.766 202.214C151.627 201.956 151.557 201.677 151.557 201.377C151.557 201.015 151.648 200.708 151.829 200.457C152.017 200.206 152.279 200.014 152.614 199.882C152.948 199.749 153.342 199.683 153.795 199.683H155.165C155.165 199.335 155.12 199.045 155.029 198.815C154.946 198.585 154.806 198.414 154.611 198.303C154.423 198.184 154.179 198.125 153.879 198.125C153.558 198.125 153.283 198.205 153.053 198.365C152.823 198.519 152.68 198.752 152.624 199.066H151.725C151.766 198.704 151.888 198.397 152.091 198.146C152.3 197.895 152.561 197.706 152.875 197.581C153.189 197.448 153.523 197.382 153.879 197.382C154.367 197.382 154.772 197.473 155.092 197.654C155.42 197.828 155.661 198.076 155.814 198.397C155.967 198.71 156.044 199.08 156.044 199.505V202.936H155.26L155.207 201.995C155.138 202.141 155.047 202.28 154.935 202.413C154.831 202.538 154.705 202.65 154.559 202.748C154.412 202.845 154.245 202.922 154.057 202.978C153.876 203.033 153.673 203.061 153.45 203.061ZM153.576 202.319C153.813 202.319 154.029 202.266 154.224 202.162C154.419 202.057 154.587 201.918 154.726 201.744C154.873 201.562 154.981 201.364 155.05 201.147C155.127 200.924 155.165 200.691 155.165 200.447V200.363H153.869C153.534 200.363 153.262 200.405 153.053 200.488C152.851 200.572 152.704 200.687 152.614 200.834C152.523 200.98 152.478 201.147 152.478 201.336C152.478 201.538 152.519 201.712 152.603 201.859C152.687 202.005 152.812 202.12 152.98 202.204C153.147 202.28 153.346 202.319 153.576 202.319ZM157.559 202.936V197.508H158.437V202.936H157.559ZM157.998 196.43C157.824 196.43 157.677 196.375 157.559 196.263C157.447 196.145 157.391 195.998 157.391 195.824C157.391 195.65 157.447 195.51 157.559 195.406C157.677 195.294 157.824 195.238 157.998 195.238C158.165 195.238 158.308 195.294 158.427 195.406C158.545 195.51 158.605 195.65 158.605 195.824C158.605 195.998 158.545 196.145 158.427 196.263C158.308 196.375 158.165 196.43 157.998 196.43ZM162.372 203.061C161.87 203.061 161.424 202.943 161.033 202.706C160.643 202.469 160.336 202.137 160.113 201.712C159.89 201.28 159.778 200.781 159.778 200.217C159.778 199.645 159.89 199.15 160.113 198.731C160.336 198.306 160.643 197.975 161.033 197.738C161.424 197.501 161.87 197.382 162.372 197.382C162.999 197.382 163.522 197.55 163.941 197.884C164.359 198.212 164.627 198.655 164.746 199.213H163.847C163.77 198.871 163.596 198.606 163.324 198.418C163.052 198.229 162.731 198.135 162.361 198.135C162.048 198.135 161.762 198.215 161.504 198.376C161.246 198.529 161.044 198.759 160.897 199.066C160.751 199.373 160.678 199.756 160.678 200.217C160.678 200.558 160.719 200.861 160.803 201.126C160.887 201.391 161.005 201.611 161.159 201.785C161.312 201.96 161.49 202.092 161.692 202.183C161.901 202.273 162.124 202.319 162.361 202.319C162.612 202.319 162.839 202.277 163.041 202.193C163.243 202.103 163.414 201.977 163.554 201.817C163.7 201.649 163.798 201.454 163.847 201.231H164.746C164.634 201.775 164.366 202.218 163.941 202.559C163.515 202.894 162.992 203.061 162.372 203.061ZM167.729 203.061C167.303 203.061 166.951 202.985 166.672 202.831C166.394 202.678 166.184 202.472 166.045 202.214C165.905 201.956 165.836 201.677 165.836 201.377C165.836 201.015 165.926 200.708 166.108 200.457C166.296 200.206 166.557 200.014 166.892 199.882C167.227 199.749 167.621 199.683 168.074 199.683H169.444C169.444 199.335 169.399 199.045 169.308 198.815C169.224 198.585 169.085 198.414 168.89 198.303C168.701 198.184 168.457 198.125 168.158 198.125C167.837 198.125 167.561 198.205 167.331 198.365C167.101 198.519 166.958 198.752 166.903 199.066H166.003C166.045 198.704 166.167 198.397 166.369 198.146C166.578 197.895 166.84 197.706 167.154 197.581C167.467 197.448 167.802 197.382 168.158 197.382C168.646 197.382 169.05 197.473 169.371 197.654C169.698 197.828 169.939 198.076 170.092 198.397C170.246 198.71 170.323 199.08 170.323 199.505V202.936H169.538L169.486 201.995C169.416 202.141 169.325 202.28 169.214 202.413C169.109 202.538 168.984 202.65 168.837 202.748C168.691 202.845 168.524 202.922 168.335 202.978C168.154 203.033 167.952 203.061 167.729 203.061ZM167.854 202.319C168.091 202.319 168.307 202.266 168.503 202.162C168.698 202.057 168.865 201.918 169.005 201.744C169.151 201.562 169.259 201.364 169.329 201.147C169.406 200.924 169.444 200.691 169.444 200.447V200.363H168.147C167.812 200.363 167.541 200.405 167.331 200.488C167.129 200.572 166.983 200.687 166.892 200.834C166.801 200.98 166.756 201.147 166.756 201.336C166.756 201.538 166.798 201.712 166.882 201.859C166.965 202.005 167.091 202.12 167.258 202.204C167.425 202.28 167.624 202.319 167.854 202.319Z" fill="white" fill-opacity="0.6"/>
<path d="M150.596 179.386C152.521 179.386 154.082 177.825 154.082 175.899C154.082 173.974 152.521 172.413 150.596 172.413C148.67 172.413 147.109 173.974 147.109 175.899C147.109 177.825 148.67 179.386 150.596 179.386Z" fill="#5899E2" fill-opacity="0.2"/>
<path d="M150.596 177.991C151.751 177.991 152.687 177.054 152.687 175.899C152.687 174.744 151.751 173.807 150.596 173.807C149.44 173.807 148.504 174.744 148.504 175.899C148.504 177.054 149.44 177.991 150.596 177.991Z" fill="#5899E2"/>
<path d="M209.164 146.615C214.742 135.459 232.87 129.881 253.788 129.881C270.522 129.881 287.255 132.67 299.806 139.643C310.962 146.615 313.751 159.165 308.173 170.321C301.2 181.477 283.072 184.266 262.155 181.477C238.448 178.688 216.137 167.532 209.164 154.982V146.615Z" fill="#5899E2" fill-opacity="0.12" stroke="#5899E2" stroke-opacity="0.5" stroke-width="1.25504"/>
<path d="M259.367 131.276C257.973 148.01 256.578 166.138 255.184 181.477" stroke="#5899E2" stroke-opacity="0.22" stroke-width="0.836693" stroke-dasharray="2.79 2.79"/>
<path d="M228.627 157.707V151.362H229.389V157.707H228.627ZM224.576 157.707V151.362H225.337V157.707H224.576ZM225.192 154.788V154.162H228.818V154.788H225.192ZM232.213 157.815C231.85 157.815 231.548 157.749 231.306 157.616C231.065 157.477 230.883 157.296 230.763 157.072C230.642 156.842 230.581 156.598 230.581 156.338C230.581 156.024 230.66 155.758 230.817 155.54C230.98 155.317 231.207 155.147 231.497 155.033C231.787 154.918 232.125 154.86 232.512 154.86H233.699C233.699 154.552 233.663 154.295 233.591 154.09C233.518 153.884 233.4 153.73 233.237 153.628C233.074 153.525 232.856 153.474 232.584 153.474C232.312 153.474 232.08 153.543 231.886 153.682C231.693 153.815 231.572 154.014 231.524 154.28H230.744C230.781 153.966 230.886 153.703 231.062 153.492C231.237 153.274 231.457 153.111 231.723 153.002C231.995 152.887 232.282 152.83 232.584 152.83C233.013 152.83 233.367 152.909 233.645 153.066C233.923 153.217 234.128 153.431 234.261 153.709C234.394 153.981 234.461 154.304 234.461 154.679V157.707H233.781L233.736 156.891C233.675 157.018 233.597 157.139 233.5 157.253C233.409 157.362 233.3 157.459 233.174 157.543C233.047 157.628 232.902 157.694 232.739 157.743C232.581 157.791 232.406 157.815 232.213 157.815ZM232.322 157.172C232.521 157.172 232.705 157.126 232.874 157.036C233.044 156.945 233.189 156.824 233.31 156.673C233.436 156.516 233.533 156.341 233.6 156.148C233.666 155.954 233.699 155.752 233.699 155.54V155.45H232.575C232.291 155.45 232.059 155.486 231.877 155.558C231.702 155.631 231.575 155.734 231.497 155.867C231.418 155.993 231.379 156.138 231.379 156.302C231.379 156.477 231.415 156.631 231.488 156.764C231.56 156.891 231.666 156.99 231.805 157.063C231.95 157.135 232.122 157.172 232.322 157.172ZM235.791 157.707V152.939H236.553V157.707H235.791ZM236.172 152.032C236.021 152.032 235.894 151.984 235.791 151.887C235.694 151.785 235.646 151.658 235.646 151.507C235.646 151.356 235.694 151.235 235.791 151.144C235.894 151.047 236.021 150.999 236.172 150.999C236.317 150.999 236.441 151.047 236.543 151.144C236.646 151.235 236.698 151.356 236.698 151.507C236.698 151.658 236.646 151.785 236.543 151.887C236.441 151.984 236.317 152.032 236.172 152.032ZM239.754 157.707C239.482 157.707 239.247 157.664 239.047 157.58C238.848 157.495 238.694 157.353 238.585 157.154C238.482 156.948 238.431 156.673 238.431 156.329V153.582H237.597V152.939H238.431L238.53 151.751H239.192V152.939H240.543V153.582H239.192V156.329C239.192 156.613 239.25 156.806 239.364 156.909C239.479 157.006 239.682 157.054 239.972 157.054H240.525V157.707H239.754ZM241.66 157.707V152.939H242.421V157.707H241.66ZM242.041 152.032C241.889 152.032 241.763 151.984 241.66 151.887C241.563 151.785 241.515 151.658 241.515 151.507C241.515 151.356 241.563 151.235 241.66 151.144C241.763 151.047 241.889 150.999 242.041 150.999C242.186 150.999 242.309 151.047 242.412 151.144C242.515 151.235 242.566 151.356 242.566 151.507C242.566 151.658 242.515 151.785 242.412 151.887C242.309 151.984 242.186 152.032 242.041 152.032Z" fill="white" fill-opacity="0.55"/>
<path d="M274.739 156.312V149.967H276.371C277.108 149.967 277.715 150.097 278.193 150.357C278.676 150.611 279.033 150.976 279.262 151.454C279.498 151.925 279.616 152.493 279.616 153.158C279.616 153.811 279.498 154.373 279.262 154.844C279.033 155.315 278.676 155.678 278.193 155.932C277.715 156.185 277.108 156.312 276.371 156.312H274.739ZM275.501 155.678H276.353C276.963 155.678 277.45 155.578 277.812 155.379C278.175 155.173 278.434 154.883 278.592 154.508C278.749 154.128 278.827 153.678 278.827 153.158C278.827 152.626 278.749 152.17 278.592 151.789C278.434 151.409 278.175 151.115 277.812 150.91C277.45 150.705 276.963 150.602 276.353 150.602H275.501V155.678ZM280.729 156.358C280.584 156.358 280.46 156.309 280.357 156.213C280.261 156.11 280.212 155.986 280.212 155.841C280.212 155.696 280.261 155.575 280.357 155.478C280.46 155.376 280.584 155.324 280.729 155.324C280.886 155.324 281.01 155.376 281.1 155.478C281.197 155.575 281.245 155.696 281.245 155.841C281.245 155.986 281.197 156.11 281.1 156.213C281.01 156.309 280.886 156.358 280.729 156.358ZM282.37 156.312V149.967H284.418C284.914 149.967 285.318 150.052 285.633 150.221C285.947 150.384 286.179 150.605 286.331 150.883C286.482 151.161 286.557 151.475 286.557 151.825C286.557 152.164 286.479 152.475 286.321 152.759C286.17 153.043 285.935 153.27 285.614 153.439C285.294 153.608 284.883 153.693 284.382 153.693H283.131V156.312H282.37ZM285.723 156.312L284.327 153.475H285.179L286.621 156.312H285.723ZM283.131 153.094H284.364C284.847 153.094 285.201 152.977 285.424 152.741C285.654 152.505 285.769 152.203 285.769 151.835C285.769 151.46 285.657 151.164 285.433 150.946C285.216 150.723 284.856 150.611 284.355 150.611H283.131V153.094ZM288.032 156.358C287.886 156.358 287.763 156.309 287.66 156.213C287.563 156.11 287.515 155.986 287.515 155.841C287.515 155.696 287.563 155.575 287.66 155.478C287.763 155.376 287.886 155.324 288.032 155.324C288.189 155.324 288.312 155.376 288.403 155.478C288.5 155.575 288.548 155.696 288.548 155.841C288.548 155.986 288.5 156.11 288.403 156.213C288.312 156.309 288.189 156.358 288.032 156.358Z" fill="white" fill-opacity="0.55"/>
<path opacity="0.85" d="M234.266 147.213C235.499 147.213 236.498 146.214 236.498 144.982C236.498 143.75 235.499 142.751 234.266 142.751C233.034 142.751 232.035 143.75 232.035 144.982C232.035 146.214 233.034 147.213 234.266 147.213Z" fill="#5899E2"/>
<path opacity="0.85" d="M281.68 165.819C282.913 165.819 283.912 164.82 283.912 163.587C283.912 162.355 282.913 161.356 281.68 161.356C280.448 161.356 279.449 162.355 279.449 163.587C279.449 164.82 280.448 165.819 281.68 165.819Z" fill="#5899E2"/>
<path d="M326.301 157.771C331.879 150.798 344.429 148.01 356.979 150.798C366.741 154.982 366.741 166.138 359.768 173.11C351.401 180.083 334.668 178.688 326.301 171.716C320.723 166.138 320.723 161.954 326.301 157.771Z" fill="#5899E2" fill-opacity="0.13" stroke="#5899E2" stroke-opacity="0.5" stroke-width="1.25504"/>
<path d="M320.34 188.688V181.855H322.537C323.083 181.855 323.532 181.946 323.884 182.129C324.235 182.311 324.495 182.555 324.665 182.861C324.834 183.167 324.918 183.515 324.918 183.905C324.918 184.289 324.834 184.637 324.665 184.95C324.495 185.262 324.235 185.509 323.884 185.691C323.539 185.867 323.09 185.955 322.537 185.955H321.16V188.688H320.34ZM321.16 185.262H322.527C323.1 185.262 323.5 185.138 323.728 184.891C323.962 184.644 324.079 184.315 324.079 183.905C324.079 183.476 323.962 183.14 323.728 182.9C323.5 182.659 323.1 182.539 322.527 182.539H321.16V185.262ZM327.808 188.805C327.43 188.805 327.102 188.734 326.822 188.591C326.542 188.447 326.324 188.226 326.168 187.927C326.012 187.627 325.934 187.253 325.934 186.804V183.583H326.754V186.716C326.754 187.178 326.864 187.527 327.086 187.761C327.307 187.989 327.609 188.103 327.993 188.103C328.254 188.103 328.488 188.041 328.696 187.917C328.911 187.793 329.08 187.614 329.204 187.38C329.334 187.146 329.399 186.856 329.399 186.511V183.583H330.219V188.688H329.477L329.428 187.859C329.285 188.164 329.07 188.399 328.784 188.561C328.504 188.724 328.179 188.805 327.808 188.805ZM333.725 188.805C333.269 188.805 332.866 188.695 332.515 188.473C332.163 188.252 331.887 187.943 331.685 187.546C331.49 187.143 331.392 186.674 331.392 186.141C331.392 185.6 331.49 185.132 331.685 184.735C331.887 184.331 332.163 184.019 332.515 183.798C332.872 183.577 333.282 183.466 333.744 183.466C334.239 183.466 334.652 183.577 334.984 183.798C335.316 184.019 335.567 184.315 335.736 184.686C335.912 185.05 335.999 185.451 335.999 185.887C335.999 185.952 335.999 186.02 335.999 186.092C335.999 186.157 335.996 186.235 335.99 186.326H332.007V185.691H335.199C335.179 185.197 335.03 184.819 334.75 184.559C334.477 184.292 334.135 184.159 333.725 184.159C333.452 184.159 333.198 184.227 332.964 184.364C332.736 184.494 332.55 184.689 332.407 184.95C332.264 185.203 332.192 185.526 332.192 185.916V186.189C332.192 186.612 332.264 186.967 332.407 187.253C332.55 187.54 332.736 187.754 332.964 187.898C333.198 188.041 333.452 188.112 333.725 188.112C334.089 188.112 334.376 188.041 334.584 187.898C334.799 187.754 334.955 187.553 335.053 187.292H335.863C335.785 187.585 335.648 187.845 335.453 188.073C335.258 188.301 335.013 188.48 334.721 188.61C334.434 188.74 334.102 188.805 333.725 188.805ZM337.126 188.688V183.583H337.868L337.926 184.52C338.043 184.292 338.193 184.1 338.375 183.944C338.564 183.788 338.792 183.671 339.059 183.593C339.325 183.508 339.625 183.466 339.957 183.466V184.325H339.478C339.283 184.325 339.094 184.354 338.912 184.413C338.73 184.465 338.564 184.549 338.414 184.667C338.271 184.784 338.157 184.943 338.073 185.145C337.988 185.347 337.946 185.6 337.946 185.906V188.688H337.126ZM342.882 188.688C342.59 188.688 342.336 188.643 342.121 188.552C341.906 188.46 341.74 188.308 341.623 188.093C341.513 187.872 341.457 187.575 341.457 187.204V184.276H340.569V183.583H341.457L341.565 182.324H342.277V183.583H343.732V184.276H342.277V187.204C342.277 187.51 342.339 187.719 342.463 187.829C342.586 187.933 342.804 187.985 343.117 187.985H343.702V188.688H342.882ZM346.92 188.805C346.445 188.805 346.025 188.695 345.661 188.473C345.296 188.252 345.013 187.943 344.812 187.546C344.61 187.143 344.509 186.674 344.509 186.141C344.509 185.594 344.61 185.122 344.812 184.725C345.02 184.328 345.306 184.019 345.671 183.798C346.041 183.577 346.464 183.466 346.939 183.466C347.415 183.466 347.831 183.577 348.189 183.798C348.553 184.019 348.836 184.328 349.038 184.725C349.246 185.122 349.351 185.594 349.351 186.141C349.351 186.674 349.246 187.143 349.038 187.546C348.83 187.943 348.544 188.252 348.179 188.473C347.815 188.695 347.395 188.805 346.92 188.805ZM346.92 188.103C347.213 188.103 347.48 188.031 347.72 187.888C347.961 187.738 348.153 187.517 348.296 187.224C348.44 186.931 348.511 186.57 348.511 186.141C348.511 185.698 348.44 185.334 348.296 185.047C348.16 184.754 347.971 184.536 347.73 184.393C347.496 184.244 347.232 184.169 346.939 184.169C346.647 184.169 346.38 184.244 346.139 184.393C345.898 184.536 345.706 184.754 345.563 185.047C345.42 185.334 345.348 185.698 345.348 186.141C345.348 186.57 345.417 186.931 345.553 187.224C345.697 187.517 345.885 187.738 346.12 187.888C346.36 188.031 346.627 188.103 346.92 188.103ZM353.209 188.688V181.855H355.415C355.949 181.855 356.385 181.946 356.723 182.129C357.061 182.304 357.312 182.542 357.475 182.841C357.637 183.14 357.719 183.479 357.719 183.856C357.719 184.221 357.634 184.556 357.465 184.862C357.302 185.168 357.048 185.412 356.703 185.594C356.359 185.776 355.916 185.867 355.376 185.867H354.029V188.688H353.209ZM356.821 188.688L355.317 185.633H356.235L357.787 188.688H356.821ZM354.029 185.223H355.356C355.877 185.223 356.258 185.096 356.498 184.842C356.746 184.588 356.869 184.263 356.869 183.866C356.869 183.463 356.749 183.144 356.508 182.909C356.274 182.669 355.887 182.548 355.347 182.548H354.029V185.223ZM359.053 188.688V183.583H359.873V188.688H359.053ZM359.463 182.597C359.3 182.597 359.163 182.545 359.053 182.441C358.949 182.33 358.897 182.194 358.897 182.031C358.897 181.868 358.949 181.738 359.053 181.64C359.163 181.536 359.3 181.484 359.463 181.484C359.619 181.484 359.752 181.536 359.863 181.64C359.974 181.738 360.029 181.868 360.029 182.031C360.029 182.194 359.974 182.33 359.863 182.441C359.752 182.545 359.619 182.597 359.463 182.597ZM363.545 188.805C363.077 188.805 362.66 188.695 362.296 188.473C361.931 188.246 361.645 187.933 361.437 187.536C361.228 187.133 361.124 186.668 361.124 186.141C361.124 185.6 361.228 185.132 361.437 184.735C361.645 184.338 361.931 184.029 362.296 183.808C362.66 183.58 363.077 183.466 363.545 183.466C364.131 183.466 364.619 183.622 365.009 183.934C365.406 184.247 365.66 184.667 365.771 185.194H364.931C364.86 184.868 364.694 184.618 364.433 184.442C364.18 184.26 363.88 184.169 363.535 184.169C363.236 184.169 362.966 184.244 362.725 184.393C362.491 184.543 362.305 184.764 362.169 185.057C362.032 185.343 361.964 185.704 361.964 186.141C361.964 186.459 362.003 186.746 362.081 187C362.159 187.247 362.266 187.452 362.403 187.614C362.546 187.777 362.712 187.901 362.901 187.985C363.096 188.07 363.308 188.112 363.535 188.112C363.77 188.112 363.981 188.073 364.17 187.995C364.365 187.911 364.528 187.793 364.658 187.644C364.795 187.488 364.886 187.302 364.931 187.087H365.771C365.667 187.601 365.413 188.018 365.009 188.337C364.612 188.649 364.124 188.805 363.545 188.805ZM369.16 188.805C368.685 188.805 368.265 188.695 367.9 188.473C367.536 188.252 367.253 187.943 367.051 187.546C366.849 187.143 366.749 186.674 366.749 186.141C366.749 185.594 366.849 185.122 367.051 184.725C367.259 184.328 367.546 184.019 367.91 183.798C368.281 183.577 368.704 183.466 369.179 183.466C369.654 183.466 370.071 183.577 370.429 183.798C370.793 184.019 371.076 184.328 371.278 184.725C371.486 185.122 371.59 185.594 371.59 186.141C371.59 186.674 371.486 187.143 371.278 187.546C371.07 187.943 370.783 188.252 370.419 188.473C370.054 188.695 369.635 188.805 369.16 188.805ZM369.16 188.103C369.452 188.103 369.719 188.031 369.96 187.888C370.201 187.738 370.393 187.517 370.536 187.224C370.679 186.931 370.751 186.57 370.751 186.141C370.751 185.698 370.679 185.334 370.536 185.047C370.399 184.754 370.211 184.536 369.97 184.393C369.736 184.244 369.472 184.169 369.179 184.169C368.886 184.169 368.619 184.244 368.379 184.393C368.138 184.536 367.946 184.754 367.803 185.047C367.66 185.334 367.588 185.698 367.588 186.141C367.588 186.57 367.656 186.931 367.793 187.224C367.936 187.517 368.125 187.738 368.359 187.888C368.6 188.031 368.867 188.103 369.16 188.103Z" fill="white" fill-opacity="0.55"/>
<path d="M345.826 167.811C347.52 167.811 348.894 166.438 348.894 164.743C348.894 163.049 347.52 161.675 345.826 161.675C344.131 161.675 342.758 163.049 342.758 164.743C342.758 166.438 344.131 167.811 345.826 167.811Z" fill="#5899E2" fill-opacity="0.2"/>
<path d="M345.827 166.696C346.905 166.696 347.78 165.822 347.78 164.743C347.78 163.665 346.905 162.791 345.827 162.791C344.749 162.791 343.875 163.665 343.875 164.743C343.875 165.822 344.749 166.696 345.827 166.696Z" fill="#5899E2"/>
<path d="M373.717 166.835C377.182 166.835 379.992 165.274 379.992 163.349C379.992 161.423 377.182 159.863 373.717 159.863C370.251 159.863 367.441 161.423 367.441 163.349C367.441 165.274 370.251 166.835 373.717 166.835Z" fill="#5899E2" fill-opacity="0.12" stroke="#5899E2" stroke-opacity="0.42" stroke-width="0.976142"/>
<path d="M382.084 170.321C384.009 170.321 385.57 169.072 385.57 167.532C385.57 165.992 384.009 164.743 382.084 164.743C380.158 164.743 378.598 165.992 378.598 167.532C378.598 169.072 380.158 170.321 382.084 170.321Z" fill="#5899E2" fill-opacity="0.11" stroke="#5899E2" stroke-opacity="0.38" stroke-width="0.836693"/>
<path d="M382.084 161.954C386.32 161.954 389.753 160.706 389.753 159.165C389.753 157.625 386.32 156.376 382.084 156.376C377.848 156.376 374.414 157.625 374.414 159.165C374.414 160.706 377.848 161.954 382.084 161.954Z" fill="#5899E2" fill-opacity="0.12" stroke="#5899E2" stroke-opacity="0.42" stroke-width="0.976142"/>
<path d="M379.494 184.796C381.377 184.395 382.19 180.712 381.309 176.569C380.429 172.426 378.188 169.391 376.305 169.792C374.421 170.192 373.608 173.875 374.489 178.018C375.37 182.162 377.61 185.196 379.494 184.796Z" fill="#5899E2" fill-opacity="0.12" stroke="#5899E2" stroke-opacity="0.42" stroke-width="0.976142"/>
<path d="M380.687 191.239C382.228 191.239 383.476 189.366 383.476 187.055C383.476 184.745 382.228 182.872 380.687 182.872C379.147 182.872 377.898 184.745 377.898 187.055C377.898 189.366 379.147 191.239 380.687 191.239Z" fill="#5899E2" fill-opacity="0.11" stroke="#5899E2" stroke-opacity="0.38" stroke-width="0.836693"/>
<path d="M394.633 181.477C398.483 181.477 401.605 178.98 401.605 175.899C401.605 172.819 398.483 170.321 394.633 170.321C390.782 170.321 387.66 172.819 387.66 175.899C387.66 178.98 390.782 181.477 394.633 181.477Z" fill="#5899E2" fill-opacity="0.14" stroke="#5899E2" stroke-opacity="0.48" stroke-width="1.11559"/>
<path d="M407.465 171.652L409.803 165.307H410.61L412.939 171.652H412.124L410.202 166.258L408.262 171.652H407.465ZM408.534 170.02L408.752 169.404H411.625L411.843 170.02H408.534ZM413.855 171.652V166.884H414.544L414.58 167.636C414.719 167.364 414.919 167.153 415.179 167.002C415.444 166.851 415.75 166.775 416.094 166.775C416.445 166.775 416.75 166.842 417.01 166.974C417.269 167.107 417.472 167.31 417.617 167.582C417.762 167.854 417.834 168.198 417.834 168.615V171.652H417.073V168.697C417.073 168.274 416.967 167.956 416.756 167.745C416.55 167.533 416.272 167.428 415.922 167.428C415.686 167.428 415.469 167.485 415.269 167.6C415.07 167.709 414.91 167.872 414.789 168.089C414.674 168.307 414.617 168.573 414.617 168.887V171.652H413.855ZM420.945 171.652C420.673 171.652 420.437 171.609 420.237 171.525C420.038 171.44 419.884 171.298 419.775 171.099C419.672 170.893 419.621 170.618 419.621 170.274V167.527H418.787V166.884H419.621L419.721 165.696H420.383V166.884H421.733V167.527H420.383V170.274C420.383 170.558 420.44 170.751 420.555 170.854C420.67 170.951 420.872 170.999 421.162 170.999H421.715V171.652H420.945ZM422.85 171.652V166.884H423.612V171.652H422.85ZM423.231 165.977C423.08 165.977 422.953 165.929 422.85 165.832C422.754 165.73 422.705 165.603 422.705 165.452C422.705 165.301 422.754 165.18 422.85 165.089C422.953 164.992 423.08 164.944 423.231 164.944C423.376 164.944 423.5 164.992 423.603 165.089C423.705 165.18 423.757 165.301 423.757 165.452C423.757 165.603 423.705 165.73 423.603 165.832C423.5 165.929 423.376 165.977 423.231 165.977ZM426.831 173.755C426.402 173.755 426.025 173.7 425.698 173.591C425.378 173.489 425.127 173.328 424.946 173.111C424.771 172.893 424.683 172.624 424.683 172.304C424.683 172.153 424.71 171.996 424.765 171.833C424.825 171.67 424.925 171.513 425.064 171.362C425.209 171.21 425.411 171.075 425.671 170.954L426.251 171.262C425.907 171.395 425.683 171.549 425.58 171.724C425.478 171.899 425.426 172.069 425.426 172.232C425.426 172.431 425.484 172.597 425.599 172.73C425.719 172.863 425.886 172.963 426.097 173.029C426.309 173.096 426.553 173.129 426.831 173.129C427.103 173.129 427.336 173.093 427.529 173.02C427.729 172.954 427.88 172.854 427.982 172.721C428.091 172.594 428.146 172.443 428.146 172.268C428.146 172.014 428.064 171.815 427.901 171.67C427.738 171.531 427.421 171.449 426.949 171.425C426.581 171.401 426.272 171.368 426.025 171.325C425.777 171.283 425.571 171.235 425.408 171.18C425.251 171.12 425.118 171.053 425.009 170.981C424.907 170.908 424.813 170.833 424.728 170.754V170.546L425.626 169.685L426.342 169.92L425.363 170.727L425.481 170.383C425.547 170.431 425.611 170.476 425.671 170.519C425.732 170.561 425.813 170.6 425.916 170.636C426.025 170.667 426.173 170.697 426.36 170.727C426.553 170.757 426.807 170.784 427.121 170.809C427.556 170.839 427.904 170.911 428.164 171.026C428.424 171.141 428.611 171.301 428.726 171.507C428.841 171.706 428.898 171.951 428.898 172.241C428.898 172.495 428.825 172.736 428.68 172.966C428.541 173.196 428.318 173.383 428.01 173.528C427.708 173.679 427.315 173.755 426.831 173.755ZM426.822 170.165C426.436 170.165 426.106 170.093 425.834 169.948C425.568 169.796 425.366 169.594 425.227 169.34C425.088 169.08 425.018 168.79 425.018 168.47C425.018 168.15 425.088 167.863 425.227 167.609C425.372 167.355 425.577 167.153 425.843 167.002C426.115 166.851 426.442 166.775 426.822 166.775C427.215 166.775 427.544 166.851 427.81 167.002C428.076 167.153 428.279 167.355 428.418 167.609C428.557 167.863 428.626 168.15 428.626 168.47C428.626 168.79 428.557 169.08 428.418 169.34C428.279 169.594 428.076 169.796 427.81 169.948C427.544 170.093 427.215 170.165 426.822 170.165ZM426.822 169.54C427.161 169.54 427.424 169.452 427.611 169.277C427.798 169.096 427.892 168.827 427.892 168.47C427.892 168.114 427.798 167.848 427.611 167.672C427.424 167.497 427.161 167.41 426.822 167.41C426.502 167.41 426.239 167.497 426.034 167.672C425.834 167.848 425.735 168.114 425.735 168.47C425.735 168.827 425.831 169.096 426.025 169.277C426.224 169.452 426.49 169.54 426.822 169.54ZM427.62 167.527L427.393 166.884H429.261V167.455L427.62 167.527ZM431.891 171.76C431.54 171.76 431.235 171.694 430.975 171.561C430.716 171.428 430.513 171.226 430.368 170.954C430.223 170.676 430.151 170.331 430.151 169.92V166.884H430.912V169.839C430.912 170.262 431.015 170.579 431.22 170.791C431.432 171.002 431.713 171.108 432.063 171.108C432.305 171.108 432.522 171.053 432.716 170.945C432.909 170.83 433.063 170.664 433.178 170.446C433.299 170.229 433.359 169.963 433.359 169.648V166.884H434.121V171.652H433.432L433.387 170.89C433.26 171.168 433.063 171.383 432.797 171.534C432.537 171.685 432.235 171.76 431.891 171.76ZM436.896 171.76C436.533 171.76 436.231 171.694 435.989 171.561C435.748 171.422 435.566 171.241 435.445 171.017C435.325 170.787 435.264 170.543 435.264 170.283C435.264 169.969 435.343 169.703 435.5 169.485C435.663 169.262 435.89 169.092 436.18 168.978C436.47 168.863 436.808 168.805 437.195 168.805H438.382C438.382 168.497 438.346 168.24 438.273 168.035C438.201 167.83 438.083 167.675 437.92 167.573C437.757 167.47 437.539 167.419 437.267 167.419C436.995 167.419 436.763 167.488 436.569 167.627C436.376 167.76 436.255 167.959 436.207 168.225H435.427C435.464 167.911 435.569 167.648 435.745 167.437C435.92 167.219 436.14 167.056 436.406 166.947C436.678 166.832 436.965 166.775 437.267 166.775C437.696 166.775 438.05 166.854 438.328 167.011C438.606 167.162 438.811 167.376 438.944 167.654C439.077 167.926 439.144 168.25 439.144 168.624V171.652H438.464L438.418 170.836C438.358 170.963 438.279 171.084 438.183 171.198C438.092 171.307 437.983 171.404 437.856 171.488C437.73 171.573 437.585 171.64 437.421 171.688C437.264 171.736 437.089 171.76 436.896 171.76ZM437.004 171.117C437.204 171.117 437.388 171.072 437.557 170.981C437.727 170.89 437.872 170.769 437.992 170.618C438.119 170.461 438.216 170.286 438.283 170.093C438.349 169.899 438.382 169.697 438.382 169.485V169.395H437.258C436.974 169.395 436.742 169.431 436.56 169.503C436.385 169.576 436.258 169.679 436.18 169.812C436.101 169.938 436.062 170.084 436.062 170.247C436.062 170.422 436.098 170.576 436.171 170.709C436.243 170.836 436.349 170.936 436.488 171.008C436.633 171.081 436.805 171.117 437.004 171.117Z" fill="white" fill-opacity="0.5"/>
<path opacity="0.8" d="M394.632 177.852C395.71 177.852 396.584 176.978 396.584 175.899C396.584 174.821 395.71 173.947 394.632 173.947C393.554 173.947 392.68 174.821 392.68 175.899C392.68 176.978 393.554 177.852 394.632 177.852Z" fill="#5899E2"/>
<path d="M387.212 204.436C389.51 204.195 390.948 199.963 390.425 194.985C389.902 190.006 387.615 186.166 385.317 186.407C383.019 186.649 381.58 190.881 382.104 195.859C382.627 200.838 384.914 204.678 387.212 204.436Z" fill="#5899E2" fill-opacity="0.12" stroke="#5899E2" stroke-opacity="0.42" stroke-width="0.976142"/>
<path d="M394.631 205.183C398.096 205.183 400.906 202.062 400.906 198.211C400.906 194.36 398.096 191.239 394.631 191.239C391.165 191.239 388.355 194.36 388.355 198.211C388.355 202.062 391.165 205.183 394.631 205.183Z" fill="#5899E2" fill-opacity="0.12" stroke="#5899E2" stroke-opacity="0.42" stroke-width="0.976142"/>
<path d="M385.891 227.442C387.805 227.241 388.901 222.731 388.337 217.37C387.774 212.008 385.765 207.825 383.85 208.026C381.935 208.227 380.84 212.737 381.403 218.098C381.967 223.46 383.976 227.643 385.891 227.442Z" fill="#5899E2" fill-opacity="0.12" stroke="#5899E2" stroke-opacity="0.42" stroke-width="0.976142"/>
<path d="M383.634 249.699C386.303 249.323 387.772 244.073 386.914 237.972C386.057 231.871 383.198 227.229 380.529 227.604C377.859 227.979 376.39 233.229 377.248 239.331C378.105 245.432 380.964 250.074 383.634 249.699Z" fill="#5899E2" fill-opacity="0.13" stroke="#5899E2" stroke-opacity="0.44" stroke-width="1.04587"/>
<path d="M322.13 241.376V235.031H323.018L325.176 239.5L327.315 235.031H328.212V241.376H327.451V236.4L325.457 240.542H324.886L322.892 236.436V241.376H322.13ZM331.042 241.485C330.679 241.485 330.377 241.418 330.136 241.285C329.894 241.146 329.713 240.965 329.592 240.741C329.471 240.512 329.41 240.267 329.41 240.007C329.41 239.693 329.489 239.427 329.646 239.21C329.809 238.986 330.036 238.817 330.326 238.702C330.616 238.587 330.954 238.53 331.341 238.53H332.529C332.529 238.222 332.492 237.965 332.42 237.759C332.347 237.554 332.229 237.4 332.066 237.297C331.903 237.194 331.686 237.143 331.414 237.143C331.142 237.143 330.909 237.212 330.716 237.351C330.522 237.484 330.401 237.684 330.353 237.95H329.574C329.61 237.635 329.716 237.373 329.891 237.161C330.066 236.944 330.287 236.78 330.553 236.672C330.824 236.557 331.112 236.499 331.414 236.499C331.843 236.499 332.196 236.578 332.474 236.735C332.752 236.886 332.958 237.101 333.091 237.379C333.223 237.651 333.29 237.974 333.29 238.349V241.376H332.61L332.565 240.56C332.504 240.687 332.426 240.808 332.329 240.923C332.238 241.032 332.13 241.128 332.003 241.213C331.876 241.297 331.731 241.364 331.568 241.412C331.411 241.461 331.235 241.485 331.042 241.485ZM331.151 240.841C331.35 240.841 331.535 240.796 331.704 240.705C331.873 240.615 332.018 240.494 332.139 240.343C332.266 240.186 332.362 240.01 332.429 239.817C332.495 239.624 332.529 239.421 332.529 239.21V239.119H331.405C331.121 239.119 330.888 239.155 330.707 239.228C330.531 239.3 330.405 239.403 330.326 239.536C330.247 239.663 330.208 239.808 330.208 239.971C330.208 240.146 330.244 240.3 330.317 240.433C330.389 240.56 330.495 240.66 330.634 240.732C330.779 240.805 330.951 240.841 331.151 240.841ZM334.548 241.376V236.608H335.237L335.291 237.478C335.4 237.261 335.542 237.08 335.717 236.935C335.892 236.79 336.104 236.681 336.352 236.608C336.605 236.536 336.889 236.499 337.204 236.499V237.297H336.732C336.551 237.297 336.376 237.321 336.207 237.37C336.037 237.418 335.883 237.497 335.744 237.605C335.611 237.714 335.506 237.862 335.427 238.049C335.349 238.237 335.309 238.472 335.309 238.756V241.376H334.548ZM339.929 241.376C339.657 241.376 339.421 241.334 339.222 241.249C339.022 241.164 338.868 241.022 338.76 240.823C338.657 240.618 338.605 240.343 338.605 239.998V237.252H337.772V236.608H338.605L338.705 235.421H339.367V236.608H340.717V237.252H339.367V239.998C339.367 240.282 339.424 240.476 339.539 240.578C339.654 240.675 339.856 240.723 340.146 240.723H340.699V241.376H339.929ZM341.835 241.376V236.608H342.596V241.376H341.835ZM342.215 235.702C342.064 235.702 341.937 235.653 341.835 235.557C341.738 235.454 341.69 235.327 341.69 235.176C341.69 235.025 341.738 234.904 341.835 234.814C341.937 234.717 342.064 234.668 342.215 234.668C342.36 234.668 342.484 234.717 342.587 234.814C342.69 234.904 342.741 235.025 342.741 235.176C342.741 235.327 342.69 235.454 342.587 235.557C342.484 235.653 342.36 235.702 342.215 235.702ZM343.948 241.376V236.608H344.637L344.674 237.361C344.813 237.089 345.012 236.877 345.272 236.726C345.538 236.575 345.843 236.499 346.187 236.499C346.538 236.499 346.843 236.566 347.103 236.699C347.363 236.832 347.565 237.034 347.71 237.306C347.855 237.578 347.928 237.923 347.928 238.339V241.376H347.166V238.421C347.166 237.998 347.06 237.681 346.849 237.469C346.644 237.258 346.366 237.152 346.015 237.152C345.779 237.152 345.562 237.209 345.362 237.324C345.163 237.433 345.003 237.596 344.882 237.814C344.767 238.031 344.71 238.297 344.71 238.611V241.376H343.948ZM349.261 241.376V236.608H350.023V241.376H349.261ZM349.642 235.702C349.491 235.702 349.364 235.653 349.261 235.557C349.164 235.454 349.116 235.327 349.116 235.176C349.116 235.025 349.164 234.904 349.261 234.814C349.364 234.717 349.491 234.668 349.642 234.668C349.787 234.668 349.911 234.717 350.013 234.814C350.116 234.904 350.168 235.025 350.168 235.176C350.168 235.327 350.116 235.454 350.013 235.557C349.911 235.653 349.787 235.702 349.642 235.702ZM354.955 243.37V240.624C354.804 240.92 354.587 241.137 354.303 241.276C354.019 241.415 353.702 241.485 353.351 241.485C352.922 241.485 352.544 241.379 352.218 241.168C351.892 240.956 351.638 240.663 351.457 240.288C351.275 239.914 351.185 239.488 351.185 239.01C351.185 238.527 351.275 238.098 351.457 237.723C351.638 237.342 351.889 237.043 352.209 236.826C352.535 236.608 352.91 236.499 353.333 236.499C353.623 236.499 353.871 236.542 354.076 236.626C354.288 236.711 354.466 236.82 354.611 236.953C354.756 237.08 354.871 237.212 354.955 237.351L355.028 236.608H355.717V243.37H354.955ZM353.442 240.823C353.744 240.823 354.007 240.751 354.23 240.606C354.454 240.454 354.626 240.243 354.747 239.971C354.868 239.693 354.928 239.367 354.928 238.992C354.928 238.617 354.868 238.294 354.747 238.022C354.626 237.744 354.454 237.533 354.23 237.388C354.007 237.237 353.744 237.161 353.442 237.161C353.158 237.161 352.904 237.237 352.68 237.388C352.457 237.533 352.281 237.744 352.155 238.022C352.028 238.294 351.964 238.617 351.964 238.992C351.964 239.367 352.028 239.693 352.155 239.971C352.281 240.243 352.457 240.454 352.68 240.606C352.904 240.751 353.158 240.823 353.442 240.823ZM358.718 241.485C358.367 241.485 358.062 241.418 357.802 241.285C357.543 241.152 357.34 240.95 357.195 240.678C357.05 240.4 356.978 240.056 356.978 239.645V236.608H357.739V239.563C357.739 239.986 357.842 240.303 358.047 240.515C358.259 240.726 358.54 240.832 358.89 240.832C359.132 240.832 359.349 240.778 359.543 240.669C359.736 240.554 359.89 240.388 360.005 240.17C360.126 239.953 360.186 239.687 360.186 239.373V236.608H360.948V241.376H360.259L360.213 240.615C360.087 240.893 359.89 241.107 359.624 241.258C359.364 241.409 359.062 241.485 358.718 241.485ZM364.212 241.485C363.789 241.485 363.414 241.382 363.088 241.177C362.762 240.971 362.505 240.681 362.318 240.306C362.136 239.932 362.046 239.494 362.046 238.992C362.046 238.491 362.136 238.052 362.318 237.678C362.505 237.303 362.762 237.013 363.088 236.808C363.42 236.602 363.801 236.499 364.23 236.499C364.689 236.499 365.073 236.602 365.381 236.808C365.69 237.013 365.922 237.288 366.079 237.632C366.236 237.977 366.315 238.355 366.315 238.765C366.315 238.826 366.315 238.886 366.315 238.947C366.315 239.007 366.312 239.08 366.306 239.164H362.617V238.575H365.572C365.56 238.11 365.424 237.756 365.164 237.515C364.91 237.267 364.593 237.143 364.212 237.143C363.958 237.143 363.723 237.206 363.505 237.333C363.294 237.454 363.121 237.635 362.988 237.877C362.855 238.119 362.789 238.421 362.789 238.784V239.037C362.789 239.436 362.855 239.772 362.988 240.044C363.121 240.309 363.294 240.509 363.505 240.642C363.723 240.775 363.958 240.841 364.212 240.841C364.55 240.841 364.816 240.778 365.01 240.651C365.203 240.518 365.345 240.331 365.436 240.089H366.188C366.116 240.355 365.989 240.593 365.807 240.805C365.632 241.016 365.409 241.183 365.137 241.303C364.871 241.424 364.563 241.485 364.212 241.485Z" fill="white" fill-opacity="0.42"/>
<path d="M379.062 266.46C380.969 266.192 381.993 262.265 381.35 257.689C380.707 253.113 378.64 249.621 376.734 249.889C374.827 250.157 373.803 254.083 374.446 258.659C375.089 263.235 377.156 266.728 379.062 266.46Z" fill="#5899E2" fill-opacity="0.13" stroke="#5899E2" stroke-opacity="0.44" stroke-width="1.04587"/>
<path d="M329.259 261.008C328.794 261.008 328.389 260.923 328.045 260.754C327.7 260.585 327.434 260.349 327.247 260.047C327.06 259.745 326.966 259.394 326.966 258.995H327.764C327.764 259.243 327.821 259.473 327.936 259.684C328.051 259.89 328.217 260.056 328.434 260.183C328.658 260.304 328.933 260.364 329.259 260.364C329.543 260.364 329.785 260.319 329.984 260.228C330.19 260.131 330.344 260.002 330.447 259.838C330.555 259.675 330.61 259.491 330.61 259.286C330.61 259.056 330.558 258.866 330.456 258.714C330.359 258.557 330.223 258.43 330.048 258.334C329.873 258.231 329.67 258.14 329.441 258.062C329.211 257.983 328.963 257.902 328.697 257.817C328.165 257.648 327.779 257.436 327.537 257.183C327.301 256.923 327.184 256.59 327.184 256.186C327.184 255.841 327.262 255.539 327.419 255.279C327.582 255.019 327.812 254.817 328.108 254.672C328.41 254.521 328.767 254.445 329.178 254.445C329.583 254.445 329.933 254.521 330.229 254.672C330.531 254.823 330.767 255.031 330.936 255.297C331.105 255.557 331.19 255.859 331.19 256.204H330.392C330.392 256.028 330.347 255.856 330.256 255.687C330.166 255.518 330.027 255.379 329.839 255.27C329.658 255.155 329.428 255.098 329.15 255.098C328.921 255.092 328.715 255.131 328.534 255.216C328.359 255.294 328.22 255.409 328.117 255.56C328.02 255.711 327.972 255.895 327.972 256.113C327.972 256.318 328.014 256.485 328.099 256.612C328.19 256.738 328.317 256.847 328.48 256.938C328.649 257.022 328.845 257.101 329.069 257.174C329.292 257.246 329.54 257.328 329.812 257.418C330.12 257.521 330.392 257.648 330.628 257.799C330.87 257.944 331.057 258.131 331.19 258.361C331.329 258.591 331.398 258.884 331.398 259.24C331.398 259.542 331.317 259.829 331.154 260.101C330.997 260.367 330.761 260.585 330.447 260.754C330.132 260.923 329.737 261.008 329.259 261.008ZM334.335 260.899C334.063 260.899 333.827 260.857 333.628 260.772C333.428 260.687 333.274 260.545 333.165 260.346C333.063 260.141 333.011 259.866 333.011 259.521V256.775H332.177V256.131H333.011L333.111 254.944H333.773V256.131H335.123V256.775H333.773V259.521C333.773 259.805 333.83 259.999 333.945 260.101C334.06 260.198 334.262 260.246 334.552 260.246H335.105V260.899H334.335ZM336.467 260.944C336.322 260.944 336.198 260.896 336.095 260.799C335.999 260.696 335.95 260.573 335.95 260.428C335.95 260.283 335.999 260.162 336.095 260.065C336.198 259.962 336.322 259.911 336.467 259.911C336.624 259.911 336.748 259.962 336.839 260.065C336.935 260.162 336.984 260.283 336.984 260.428C336.984 260.573 336.935 260.696 336.839 260.799C336.748 260.896 336.624 260.944 336.467 260.944ZM340.542 260.899V254.554H341.303V260.292H344.258V260.899H340.542ZM347.016 261.008C346.665 261.008 346.36 260.941 346.1 260.808C345.841 260.675 345.638 260.473 345.493 260.201C345.348 259.923 345.276 259.579 345.276 259.168V256.131H346.037V259.086C346.037 259.509 346.14 259.826 346.345 260.038C346.557 260.249 346.838 260.355 347.188 260.355C347.43 260.355 347.647 260.301 347.841 260.192C348.034 260.077 348.188 259.911 348.303 259.693C348.424 259.476 348.484 259.21 348.484 258.896V256.131H349.246V260.899H348.557L348.512 260.138C348.385 260.416 348.188 260.63 347.922 260.781C347.663 260.932 347.36 261.008 347.016 261.008ZM352.592 261.008C352.157 261.008 351.77 260.905 351.432 260.7C351.093 260.488 350.827 260.195 350.634 259.82C350.441 259.446 350.344 259.011 350.344 258.515C350.344 258.013 350.441 257.578 350.634 257.21C350.827 256.835 351.093 256.545 351.432 256.34C351.77 256.128 352.157 256.022 352.592 256.022C353.136 256.022 353.589 256.167 353.951 256.457C354.32 256.748 354.556 257.137 354.658 257.627H353.879C353.812 257.325 353.658 257.092 353.417 256.929C353.181 256.76 352.903 256.675 352.583 256.675C352.305 256.675 352.054 256.745 351.83 256.883C351.613 257.022 351.441 257.228 351.314 257.5C351.187 257.772 351.123 258.11 351.123 258.515C351.123 258.817 351.16 259.086 351.232 259.322C351.305 259.551 351.404 259.745 351.531 259.902C351.664 260.053 351.818 260.168 351.994 260.246C352.175 260.325 352.371 260.364 352.583 260.364C352.8 260.364 352.997 260.328 353.172 260.255C353.353 260.177 353.504 260.065 353.625 259.92C353.752 259.775 353.837 259.603 353.879 259.403H354.658C354.562 259.881 354.326 260.267 353.951 260.564C353.583 260.86 353.13 261.008 352.592 261.008ZM355.838 260.899V256.131H356.599V260.899H355.838ZM356.219 255.225C356.068 255.225 355.941 255.176 355.838 255.08C355.741 254.977 355.693 254.85 355.693 254.699C355.693 254.548 355.741 254.427 355.838 254.336C355.941 254.24 356.068 254.191 356.219 254.191C356.364 254.191 356.488 254.24 356.59 254.336C356.693 254.427 356.745 254.548 356.745 254.699C356.745 254.85 356.693 254.977 356.59 255.08C356.488 255.176 356.364 255.225 356.219 255.225ZM359.438 261.008C359.076 261.008 358.774 260.941 358.532 260.808C358.29 260.669 358.109 260.488 357.988 260.264C357.867 260.035 357.807 259.79 357.807 259.53C357.807 259.216 357.885 258.95 358.043 258.733C358.206 258.509 358.432 258.34 358.722 258.225C359.012 258.11 359.351 258.053 359.738 258.053H360.925C360.925 257.745 360.889 257.488 360.816 257.282C360.744 257.077 360.626 256.923 360.463 256.82C360.3 256.717 360.082 256.666 359.81 256.666C359.538 256.666 359.306 256.735 359.112 256.874C358.919 257.007 358.798 257.207 358.75 257.473H357.97C358.006 257.158 358.112 256.896 358.287 256.684C358.463 256.467 358.683 256.303 358.949 256.195C359.221 256.08 359.508 256.022 359.81 256.022C360.239 256.022 360.593 256.101 360.871 256.258C361.149 256.409 361.354 256.624 361.487 256.902C361.62 257.174 361.686 257.497 361.686 257.871V260.899H361.007L360.961 260.083C360.901 260.21 360.822 260.331 360.726 260.446C360.635 260.554 360.526 260.651 360.399 260.736C360.272 260.82 360.127 260.887 359.964 260.935C359.807 260.984 359.632 261.008 359.438 261.008ZM359.547 260.364C359.747 260.364 359.931 260.319 360.1 260.228C360.269 260.138 360.414 260.017 360.535 259.866C360.662 259.708 360.759 259.533 360.825 259.34C360.892 259.147 360.925 258.944 360.925 258.733V258.642H359.801C359.517 258.642 359.284 258.678 359.103 258.751C358.928 258.823 358.801 258.926 358.722 259.059C358.644 259.186 358.605 259.331 358.605 259.494C358.605 259.669 358.641 259.823 358.713 259.956C358.786 260.083 358.892 260.183 359.031 260.255C359.176 260.328 359.348 260.364 359.547 260.364Z" fill="white" fill-opacity="0.42"/>
<path d="M418.338 262.357C421.033 262.357 423.218 259.236 423.218 255.385C423.218 251.534 421.033 248.413 418.338 248.413C415.642 248.413 413.457 251.534 413.457 255.385C413.457 259.236 415.642 262.357 418.338 262.357Z" fill="#5899E2" fill-opacity="0.14" stroke="#5899E2" stroke-opacity="0.46" stroke-width="1.11559"/>
<path d="M430.194 258.11V251.765H432.424C432.871 251.765 433.24 251.837 433.53 251.982C433.826 252.121 434.046 252.315 434.191 252.563C434.336 252.804 434.409 253.076 434.409 253.378C434.409 253.705 434.336 253.977 434.191 254.194C434.052 254.412 433.868 254.578 433.638 254.693C433.415 254.807 433.176 254.877 432.922 254.901L433.049 254.811C433.321 254.817 433.572 254.889 433.802 255.028C434.031 255.167 434.212 255.354 434.345 255.59C434.484 255.826 434.554 256.089 434.554 256.379C434.554 256.699 434.475 256.992 434.318 257.258C434.161 257.518 433.928 257.726 433.62 257.883C433.318 258.034 432.944 258.11 432.496 258.11H430.194ZM430.955 257.475H432.415C432.844 257.475 433.176 257.376 433.412 257.176C433.654 256.971 433.774 256.687 433.774 256.324C433.774 255.968 433.651 255.684 433.403 255.472C433.161 255.255 432.826 255.146 432.397 255.146H430.955V257.475ZM430.955 254.539H432.369C432.78 254.539 433.092 254.442 433.303 254.249C433.521 254.055 433.629 253.792 433.629 253.46C433.629 253.14 433.521 252.883 433.303 252.689C433.092 252.496 432.771 252.399 432.342 252.399H430.955V254.539ZM437.123 258.219C436.761 258.219 436.458 258.152 436.217 258.019C435.975 257.88 435.794 257.699 435.673 257.475C435.552 257.246 435.492 257.001 435.492 256.741C435.492 256.427 435.57 256.161 435.727 255.944C435.89 255.72 436.117 255.551 436.407 255.436C436.697 255.321 437.035 255.264 437.422 255.264H438.61C438.61 254.956 438.573 254.699 438.501 254.493C438.428 254.288 438.311 254.134 438.147 254.031C437.984 253.928 437.767 253.877 437.495 253.877C437.223 253.877 436.99 253.946 436.797 254.085C436.603 254.218 436.483 254.418 436.434 254.684H435.655C435.691 254.369 435.797 254.107 435.972 253.895C436.147 253.677 436.368 253.514 436.634 253.406C436.906 253.291 437.193 253.233 437.495 253.233C437.924 253.233 438.277 253.312 438.555 253.469C438.833 253.62 439.039 253.835 439.172 254.113C439.305 254.384 439.371 254.708 439.371 255.082V258.11H438.691L438.646 257.294C438.585 257.421 438.507 257.542 438.41 257.657C438.32 257.765 438.211 257.862 438.084 257.947C437.957 258.031 437.812 258.098 437.649 258.146C437.492 258.194 437.316 258.219 437.123 258.219ZM437.232 257.575C437.431 257.575 437.616 257.53 437.785 257.439C437.954 257.348 438.099 257.228 438.22 257.077C438.347 256.919 438.443 256.744 438.51 256.551C438.576 256.357 438.61 256.155 438.61 255.944V255.853H437.486C437.202 255.853 436.969 255.889 436.788 255.962C436.612 256.034 436.486 256.137 436.407 256.27C436.328 256.397 436.289 256.542 436.289 256.705C436.289 256.88 436.325 257.034 436.398 257.167C436.47 257.294 436.576 257.394 436.715 257.466C436.86 257.539 437.032 257.575 437.232 257.575ZM440.629 258.11V253.342H441.318L441.372 254.212C441.481 253.995 441.623 253.813 441.798 253.668C441.973 253.523 442.185 253.415 442.433 253.342C442.687 253.27 442.971 253.233 443.285 253.233V254.031H442.813C442.632 254.031 442.457 254.055 442.288 254.103C442.119 254.152 441.964 254.23 441.825 254.339C441.692 254.448 441.587 254.596 441.508 254.783C441.43 254.971 441.39 255.206 441.39 255.49V258.11H440.629ZM446.536 258.219C446.246 258.219 445.995 258.176 445.783 258.092C445.578 258.001 445.403 257.889 445.258 257.756C445.119 257.623 445.004 257.493 444.913 257.367L444.85 258.11H444.161V251.584H444.922V254.094C445.067 253.81 445.282 253.596 445.566 253.451C445.85 253.306 446.167 253.233 446.517 253.233C446.953 253.233 447.333 253.339 447.66 253.551C447.986 253.762 448.24 254.055 448.421 254.43C448.602 254.798 448.693 255.224 448.693 255.708C448.693 256.185 448.602 256.614 448.421 256.995C448.24 257.376 447.986 257.675 447.66 257.892C447.339 258.11 446.965 258.219 446.536 258.219ZM446.436 257.557C446.72 257.557 446.971 257.484 447.188 257.339C447.412 257.188 447.587 256.977 447.714 256.705C447.847 256.427 447.913 256.101 447.913 255.726C447.913 255.351 447.847 255.028 447.714 254.756C447.587 254.478 447.412 254.267 447.188 254.122C446.971 253.971 446.72 253.895 446.436 253.895C446.134 253.895 445.871 253.971 445.647 254.122C445.424 254.267 445.252 254.478 445.131 254.756C445.01 255.028 444.949 255.351 444.949 255.726C444.949 256.101 445.01 256.427 445.131 256.705C445.252 256.977 445.424 257.188 445.647 257.339C445.871 257.484 446.134 257.557 446.436 257.557ZM451.286 258.219C450.923 258.219 450.621 258.152 450.379 258.019C450.138 257.88 449.956 257.699 449.836 257.475C449.715 257.246 449.654 257.001 449.654 256.741C449.654 256.427 449.733 256.161 449.89 255.944C450.053 255.72 450.28 255.551 450.57 255.436C450.86 255.321 451.198 255.264 451.585 255.264H452.772C452.772 254.956 452.736 254.699 452.664 254.493C452.591 254.288 452.473 254.134 452.31 254.031C452.147 253.928 451.929 253.877 451.658 253.877C451.386 253.877 451.153 253.946 450.96 254.085C450.766 254.218 450.645 254.418 450.597 254.684H449.817C449.854 254.369 449.959 254.107 450.135 253.895C450.31 253.677 450.531 253.514 450.796 253.406C451.068 253.291 451.355 253.233 451.658 253.233C452.087 253.233 452.44 253.312 452.718 253.469C452.996 253.62 453.201 253.835 453.334 254.113C453.467 254.384 453.534 254.708 453.534 255.082V258.11H452.854L452.809 257.294C452.748 257.421 452.67 257.542 452.573 257.657C452.482 257.765 452.374 257.862 452.247 257.947C452.12 258.031 451.975 258.098 451.812 258.146C451.654 258.194 451.479 258.219 451.286 258.219ZM451.395 257.575C451.594 257.575 451.778 257.53 451.948 257.439C452.117 257.348 452.262 257.228 452.383 257.077C452.51 256.919 452.606 256.744 452.673 256.551C452.739 256.357 452.772 256.155 452.772 255.944V255.853H451.648C451.364 255.853 451.132 255.889 450.951 255.962C450.775 256.034 450.648 256.137 450.57 256.27C450.491 256.397 450.452 256.542 450.452 256.705C450.452 256.88 450.488 257.034 450.561 257.167C450.633 257.294 450.739 257.394 450.878 257.466C451.023 257.539 451.195 257.575 451.395 257.575ZM456.759 258.219C456.336 258.219 455.961 258.11 455.635 257.892C455.308 257.675 455.055 257.379 454.873 257.004C454.692 256.623 454.601 256.194 454.601 255.717C454.601 255.233 454.692 254.807 454.873 254.439C455.055 254.064 455.308 253.771 455.635 253.56C455.961 253.342 456.339 253.233 456.768 253.233C457.142 253.233 457.463 253.309 457.729 253.46C458 253.611 458.215 253.823 458.372 254.094V251.584H459.133V258.11H458.445L458.381 257.348C458.291 257.5 458.17 257.642 458.019 257.774C457.874 257.907 457.695 258.016 457.484 258.101C457.278 258.179 457.037 258.219 456.759 258.219ZM456.858 257.557C457.161 257.557 457.423 257.484 457.647 257.339C457.871 257.188 458.043 256.977 458.164 256.705C458.284 256.427 458.345 256.101 458.345 255.726C458.345 255.351 458.284 255.028 458.164 254.756C458.043 254.478 457.871 254.267 457.647 254.122C457.423 253.971 457.161 253.895 456.858 253.895C456.574 253.895 456.321 253.971 456.097 254.122C455.873 254.267 455.698 254.478 455.571 254.756C455.444 255.028 455.381 255.351 455.381 255.726C455.381 256.101 455.444 256.427 455.571 256.705C455.698 256.977 455.873 257.188 456.097 257.339C456.321 257.484 456.574 257.557 456.858 257.557ZM462.47 258.219C462.029 258.219 461.639 258.116 461.301 257.91C460.962 257.705 460.699 257.415 460.512 257.04C460.325 256.666 460.231 256.228 460.231 255.726C460.231 255.218 460.325 254.78 460.512 254.412C460.705 254.037 460.971 253.747 461.31 253.542C461.654 253.336 462.047 253.233 462.488 253.233C462.935 253.233 463.325 253.336 463.657 253.542C463.996 253.747 464.259 254.037 464.446 254.412C464.633 254.78 464.727 255.218 464.727 255.726C464.727 256.228 464.63 256.666 464.437 257.04C464.25 257.415 463.987 257.705 463.648 257.91C463.31 258.116 462.917 258.219 462.47 258.219ZM462.47 257.566C462.748 257.566 462.999 257.5 463.222 257.367C463.446 257.228 463.621 257.022 463.748 256.75C463.881 256.472 463.947 256.131 463.947 255.726C463.947 255.315 463.884 254.974 463.757 254.702C463.63 254.43 463.455 254.227 463.231 254.094C463.014 253.955 462.766 253.886 462.488 253.886C462.216 253.886 461.968 253.955 461.745 254.094C461.521 254.227 461.343 254.43 461.21 254.702C461.077 254.974 461.011 255.315 461.011 255.726C461.011 256.131 461.074 256.472 461.201 256.75C461.334 257.022 461.509 257.228 461.727 257.367C461.95 257.5 462.198 257.566 462.47 257.566ZM467.552 258.219C467.123 258.219 466.766 258.155 466.482 258.028C466.205 257.895 465.993 257.714 465.848 257.484C465.703 257.249 465.615 256.977 465.585 256.669H466.365C466.389 256.832 466.443 256.983 466.528 257.122C466.618 257.255 466.748 257.364 466.918 257.448C467.087 257.533 467.301 257.575 467.561 257.575C467.767 257.575 467.942 257.545 468.087 257.484C468.232 257.418 468.341 257.327 468.413 257.213C468.492 257.098 468.531 256.965 468.531 256.814C468.531 256.614 468.486 256.46 468.395 256.351C468.31 256.237 468.184 256.152 468.014 256.098C467.851 256.037 467.646 255.992 467.398 255.962C467.132 255.925 466.896 255.874 466.691 255.808C466.485 255.741 466.31 255.653 466.165 255.545C466.026 255.436 465.92 255.3 465.848 255.137C465.775 254.974 465.739 254.78 465.739 254.557C465.739 254.297 465.809 254.067 465.948 253.868C466.087 253.668 466.283 253.514 466.537 253.406C466.797 253.291 467.102 253.233 467.452 253.233C467.966 253.233 468.371 253.351 468.667 253.587C468.969 253.823 469.147 254.158 469.202 254.593H468.449C468.419 254.369 468.316 254.194 468.141 254.067C467.966 253.94 467.733 253.877 467.443 253.877C467.135 253.877 466.902 253.934 466.745 254.049C466.588 254.164 466.51 254.315 466.51 254.502C466.51 254.641 466.543 254.768 466.609 254.883C466.682 254.992 466.803 255.085 466.972 255.164C467.141 255.237 467.368 255.291 467.652 255.327C468.008 255.369 468.31 255.439 468.558 255.536C468.806 255.626 468.993 255.768 469.12 255.962C469.253 256.155 469.317 256.418 469.31 256.75C469.31 257.064 469.235 257.33 469.084 257.548C468.939 257.765 468.733 257.932 468.468 258.046C468.208 258.161 467.903 258.219 467.552 258.219Z" fill="white" fill-opacity="0.44"/>
<path opacity="0.75" d="M418.34 257.198C419.341 257.198 420.153 256.386 420.153 255.385C420.153 254.384 419.341 253.572 418.34 253.572C417.339 253.572 416.527 254.384 416.527 255.385C416.527 256.386 417.339 257.198 418.34 257.198Z" fill="#5899E2"/>
<path d="M374.385 281.154C375.919 281.02 376.864 277.49 376.495 273.27C376.126 269.051 374.582 265.739 373.048 265.873C371.513 266.007 370.569 269.537 370.938 273.756C371.307 277.976 372.85 281.288 374.385 281.154Z" fill="#5899E2" fill-opacity="0.12" stroke="#5899E2" stroke-opacity="0.42" stroke-width="0.976142"/>
<path d="M370.928 301.403C373.623 301.403 375.808 298.281 375.808 294.431C375.808 290.58 373.623 287.458 370.928 287.458C368.232 287.458 366.047 290.58 366.047 294.431C366.047 298.281 368.232 301.403 370.928 301.403Z" fill="#5899E2" fill-opacity="0.13" stroke="#5899E2" stroke-opacity="0.44" stroke-width="1.04587"/>
<path d="M322.493 297.264C321.9 297.264 321.381 297.128 320.933 296.856C320.486 296.578 320.139 296.195 319.891 295.705C319.643 295.216 319.519 294.645 319.519 293.992C319.519 293.346 319.643 292.774 319.891 292.279C320.145 291.783 320.501 291.397 320.961 291.119C321.426 290.841 321.973 290.702 322.601 290.702C323.314 290.702 323.91 290.874 324.387 291.218C324.864 291.557 325.169 292.031 325.302 292.642H324.423C324.339 292.261 324.139 291.959 323.825 291.735C323.511 291.512 323.103 291.4 322.601 291.4C322.136 291.4 321.728 291.506 321.378 291.717C321.033 291.922 320.767 292.219 320.58 292.605C320.393 292.992 320.299 293.454 320.299 293.992C320.299 294.53 320.393 294.995 320.58 295.388C320.767 295.775 321.027 296.071 321.359 296.276C321.698 296.482 322.085 296.584 322.52 296.584C323.196 296.584 323.707 296.385 324.052 295.986C324.396 295.587 324.592 295.047 324.641 294.364H322.81V293.766H325.42V297.156H324.722L324.659 296.113C324.508 296.361 324.333 296.572 324.133 296.748C323.94 296.917 323.71 297.047 323.444 297.137C323.178 297.222 322.861 297.264 322.493 297.264ZM326.623 297.156V292.388H327.312L327.366 293.258C327.475 293.04 327.617 292.859 327.793 292.714C327.968 292.569 328.179 292.46 328.427 292.388C328.681 292.315 328.965 292.279 329.279 292.279V293.077H328.808C328.626 293.077 328.451 293.101 328.282 293.149C328.113 293.197 327.959 293.276 327.82 293.385C327.687 293.494 327.581 293.642 327.502 293.829C327.424 294.016 327.385 294.252 327.385 294.536V297.156H326.623ZM331.963 297.264C331.54 297.264 331.165 297.162 330.839 296.956C330.513 296.751 330.256 296.461 330.068 296.086C329.887 295.711 329.797 295.273 329.797 294.772C329.797 294.27 329.887 293.832 330.068 293.457C330.256 293.083 330.513 292.793 330.839 292.587C331.171 292.382 331.552 292.279 331.981 292.279C332.44 292.279 332.824 292.382 333.132 292.587C333.44 292.793 333.673 293.068 333.83 293.412C333.987 293.756 334.066 294.134 334.066 294.545C334.066 294.605 334.066 294.666 334.066 294.726C334.066 294.787 334.063 294.859 334.057 294.944H330.368V294.355H333.323C333.31 293.889 333.174 293.536 332.915 293.294C332.661 293.046 332.344 292.923 331.963 292.923C331.709 292.923 331.473 292.986 331.256 293.113C331.044 293.234 330.872 293.415 330.739 293.657C330.606 293.898 330.54 294.201 330.54 294.563V294.817C330.54 295.216 330.606 295.551 330.739 295.823C330.872 296.089 331.044 296.288 331.256 296.421C331.473 296.554 331.709 296.621 331.963 296.621C332.301 296.621 332.567 296.557 332.761 296.43C332.954 296.297 333.096 296.11 333.187 295.868H333.939C333.866 296.134 333.739 296.373 333.558 296.584C333.383 296.796 333.159 296.962 332.887 297.083C332.622 297.204 332.313 297.264 331.963 297.264ZM335.121 297.156V292.388H335.81L335.846 293.14C335.985 292.868 336.184 292.657 336.444 292.506C336.71 292.355 337.015 292.279 337.36 292.279C337.71 292.279 338.015 292.345 338.275 292.478C338.535 292.611 338.738 292.814 338.883 293.086C339.028 293.358 339.1 293.702 339.1 294.119V297.156H338.339V294.201C338.339 293.778 338.233 293.46 338.021 293.249C337.816 293.037 337.538 292.932 337.188 292.932C336.952 292.932 336.734 292.989 336.535 293.104C336.335 293.213 336.175 293.376 336.055 293.593C335.94 293.811 335.882 294.077 335.882 294.391V297.156H335.121ZM341.848 297.264C341.485 297.264 341.183 297.198 340.941 297.065C340.7 296.926 340.518 296.745 340.397 296.521C340.277 296.291 340.216 296.047 340.216 295.787C340.216 295.473 340.295 295.207 340.452 294.989C340.615 294.766 340.842 294.596 341.132 294.482C341.422 294.367 341.76 294.309 342.147 294.309H343.334C343.334 294.001 343.298 293.744 343.225 293.539C343.153 293.333 343.035 293.179 342.872 293.077C342.709 292.974 342.491 292.923 342.219 292.923C341.947 292.923 341.715 292.992 341.521 293.131C341.328 293.264 341.207 293.463 341.159 293.729H340.379C340.416 293.415 340.521 293.152 340.696 292.941C340.872 292.723 341.092 292.56 341.358 292.451C341.63 292.336 341.917 292.279 342.219 292.279C342.648 292.279 343.002 292.358 343.28 292.515C343.558 292.666 343.763 292.88 343.896 293.158C344.029 293.43 344.096 293.753 344.096 294.128V297.156H343.416L343.37 296.34C343.31 296.467 343.231 296.587 343.135 296.702C343.044 296.811 342.935 296.908 342.808 296.992C342.682 297.077 342.537 297.143 342.373 297.192C342.216 297.24 342.041 297.264 341.848 297.264ZM341.956 296.621C342.156 296.621 342.34 296.575 342.509 296.485C342.679 296.394 342.824 296.273 342.944 296.122C343.071 295.965 343.168 295.79 343.234 295.596C343.301 295.403 343.334 295.201 343.334 294.989V294.899H342.21C341.926 294.899 341.694 294.935 341.512 295.007C341.337 295.08 341.21 295.183 341.132 295.315C341.053 295.442 341.014 295.587 341.014 295.751C341.014 295.926 341.05 296.08 341.123 296.213C341.195 296.34 341.301 296.439 341.44 296.512C341.585 296.584 341.757 296.621 341.956 296.621ZM347.32 297.264C346.897 297.264 346.523 297.156 346.196 296.938C345.87 296.72 345.616 296.424 345.435 296.05C345.254 295.669 345.163 295.24 345.163 294.763C345.163 294.279 345.254 293.853 345.435 293.485C345.616 293.11 345.87 292.817 346.196 292.605C346.523 292.388 346.9 292.279 347.329 292.279C347.704 292.279 348.024 292.355 348.29 292.506C348.562 292.657 348.777 292.868 348.934 293.14V290.629H349.695V297.156H349.006L348.943 296.394C348.852 296.545 348.731 296.687 348.58 296.82C348.435 296.953 348.257 297.062 348.046 297.146C347.84 297.225 347.598 297.264 347.32 297.264ZM347.42 296.603C347.722 296.603 347.985 296.53 348.209 296.385C348.432 296.234 348.605 296.022 348.725 295.751C348.846 295.473 348.907 295.146 348.907 294.772C348.907 294.397 348.846 294.074 348.725 293.802C348.605 293.524 348.432 293.312 348.209 293.167C347.985 293.016 347.722 292.941 347.42 292.941C347.136 292.941 346.882 293.016 346.659 293.167C346.435 293.312 346.26 293.524 346.133 293.802C346.006 294.074 345.943 294.397 345.943 294.772C345.943 295.146 346.006 295.473 346.133 295.751C346.26 296.022 346.435 296.234 346.659 296.385C346.882 296.53 347.136 296.603 347.42 296.603ZM352.47 297.264C352.107 297.264 351.805 297.198 351.563 297.065C351.322 296.926 351.14 296.745 351.019 296.521C350.899 296.291 350.838 296.047 350.838 295.787C350.838 295.473 350.917 295.207 351.074 294.989C351.237 294.766 351.464 294.596 351.754 294.482C352.044 294.367 352.382 294.309 352.769 294.309H353.956C353.956 294.001 353.92 293.744 353.847 293.539C353.775 293.333 353.657 293.179 353.494 293.077C353.331 292.974 353.113 292.923 352.841 292.923C352.569 292.923 352.337 292.992 352.143 293.131C351.95 293.264 351.829 293.463 351.781 293.729H351.001C351.038 293.415 351.143 293.152 351.319 292.941C351.494 292.723 351.714 292.56 351.98 292.451C352.252 292.336 352.539 292.279 352.841 292.279C353.27 292.279 353.624 292.358 353.902 292.515C354.18 292.666 354.385 292.88 354.518 293.158C354.651 293.43 354.718 293.753 354.718 294.128V297.156H354.038L353.993 296.34C353.932 296.467 353.854 296.587 353.757 296.702C353.666 296.811 353.557 296.908 353.431 296.992C353.304 297.077 353.159 297.143 352.995 297.192C352.838 297.24 352.663 297.264 352.47 297.264ZM352.579 296.621C352.778 296.621 352.962 296.575 353.131 296.485C353.301 296.394 353.446 296.273 353.567 296.122C353.693 295.965 353.79 295.79 353.857 295.596C353.923 295.403 353.956 295.201 353.956 294.989V294.899H352.832C352.548 294.899 352.316 294.935 352.134 295.007C351.959 295.08 351.832 295.183 351.754 295.315C351.675 295.442 351.636 295.587 351.636 295.751C351.636 295.926 351.672 296.08 351.745 296.213C351.817 296.34 351.923 296.439 352.062 296.512C352.207 296.584 352.379 296.621 352.579 296.621Z" fill="white" fill-opacity="0.42"/>
<path d="M415.824 312.962C420.89 311.118 424.249 307.57 423.327 305.037C422.405 302.504 417.551 301.945 412.485 303.789C407.419 305.633 404.06 309.181 404.982 311.714C405.904 314.247 410.758 314.806 415.824 312.962Z" fill="#5899E2" fill-opacity="0.12" stroke="#5899E2" stroke-opacity="0.42" stroke-width="1.04587"/>
<path d="M356.983 319.532C365.35 309.77 387.662 309.77 405.79 318.137C419.735 325.11 425.313 337.66 416.946 346.027C404.395 354.394 373.717 351.605 361.166 341.843C351.405 333.476 350.01 326.504 356.983 319.532Z" fill="#5899E2" fill-opacity="0.14" stroke="#5899E2" stroke-opacity="0.5" stroke-width="1.25504"/>
<path d="M370.367 364.697V358.097H368.181V357.375H373.431V358.097H371.246V364.697H370.367ZM373.9 364.697V359.268H374.695L374.758 360.273C374.876 360.022 375.033 359.812 375.229 359.645C375.431 359.478 375.671 359.352 375.95 359.268C376.236 359.185 376.553 359.143 376.902 359.143V360.063H376.431C376.215 360.063 376.006 360.091 375.804 360.147C375.609 360.203 375.431 360.293 375.27 360.419C375.117 360.544 374.995 360.719 374.904 360.942C374.821 361.158 374.779 361.433 374.779 361.768V364.697H373.9ZM377.998 364.697V359.268H378.876V364.697H377.998ZM378.437 358.191C378.263 358.191 378.116 358.135 377.998 358.024C377.886 357.905 377.831 357.759 377.831 357.585C377.831 357.41 377.886 357.271 377.998 357.166C378.116 357.055 378.263 356.999 378.437 356.999C378.605 356.999 378.747 357.055 378.866 357.166C378.985 357.271 379.044 357.41 379.044 357.585C379.044 357.759 378.985 357.905 378.866 358.024C378.747 358.135 378.605 358.191 378.437 358.191ZM380.437 364.697V359.268H381.232L381.274 360.147C381.434 359.826 381.668 359.579 381.974 359.404C382.281 359.23 382.633 359.143 383.031 359.143C383.435 359.143 383.787 359.22 384.087 359.373C384.387 359.526 384.62 359.764 384.788 360.084C384.955 360.405 385.039 360.809 385.039 361.297V364.697H384.16V361.392C384.16 360.89 384.042 360.517 383.805 360.273C383.568 360.022 383.243 359.896 382.832 359.896C382.553 359.896 382.299 359.962 382.069 360.095C381.838 360.227 381.654 360.422 381.514 360.68C381.382 360.931 381.316 361.245 381.316 361.622V364.697H380.437ZM386.557 364.697V359.268H387.435V364.697H386.557ZM386.996 358.191C386.822 358.191 386.675 358.135 386.557 358.024C386.445 357.905 386.39 357.759 386.39 357.585C386.39 357.41 386.445 357.271 386.557 357.166C386.675 357.055 386.822 356.999 386.996 356.999C387.163 356.999 387.306 357.055 387.425 357.166C387.543 357.271 387.603 357.41 387.603 357.585C387.603 357.759 387.543 357.905 387.425 358.024C387.306 358.135 387.163 358.191 386.996 358.191ZM391.276 364.822C390.781 364.822 390.345 364.7 389.969 364.456C389.592 364.205 389.299 363.863 389.09 363.431C388.881 362.999 388.776 362.511 388.776 361.967C388.776 361.416 388.881 360.931 389.09 360.513C389.299 360.088 389.592 359.753 389.969 359.509C390.352 359.265 390.791 359.143 391.286 359.143C391.719 359.143 392.092 359.23 392.405 359.404C392.719 359.579 392.967 359.823 393.148 360.137V357.166H394.027V364.697H393.232L393.158 363.818C393.054 363.992 392.914 364.156 392.74 364.31C392.573 364.463 392.367 364.588 392.123 364.686C391.879 364.777 391.597 364.822 391.276 364.822ZM391.391 364.059C391.74 364.059 392.043 363.975 392.301 363.808C392.566 363.633 392.768 363.393 392.907 363.086C393.047 362.772 393.117 362.403 393.117 361.977C393.117 361.559 393.047 361.193 392.907 360.879C392.768 360.565 392.566 360.325 392.301 360.157C392.043 359.99 391.74 359.906 391.391 359.906C391.056 359.906 390.76 359.99 390.502 360.157C390.244 360.325 390.042 360.565 389.895 360.879C389.749 361.193 389.676 361.559 389.676 361.977C389.676 362.403 389.749 362.772 389.895 363.086C390.042 363.393 390.244 363.633 390.502 363.808C390.76 363.975 391.056 364.059 391.391 364.059ZM397.227 364.822C396.802 364.822 396.45 364.745 396.171 364.592C395.892 364.439 395.683 364.233 395.544 363.975C395.404 363.717 395.334 363.438 395.334 363.138C395.334 362.776 395.425 362.469 395.606 362.218C395.795 361.967 396.056 361.775 396.391 361.643C396.725 361.51 397.119 361.444 397.573 361.444H398.943C398.943 361.095 398.897 360.806 398.807 360.576C398.723 360.346 398.584 360.175 398.388 360.063C398.2 359.945 397.956 359.886 397.656 359.886C397.335 359.886 397.06 359.966 396.83 360.126C396.6 360.279 396.457 360.513 396.401 360.827H395.502C395.544 360.464 395.666 360.157 395.868 359.906C396.077 359.655 396.338 359.467 396.652 359.342C396.966 359.209 397.301 359.143 397.656 359.143C398.144 359.143 398.549 359.234 398.869 359.415C399.197 359.589 399.438 359.837 399.591 360.157C399.744 360.471 399.821 360.841 399.821 361.266V364.697H399.037L398.984 363.755C398.915 363.902 398.824 364.041 398.713 364.174C398.608 364.299 398.482 364.411 398.336 364.508C398.19 364.606 398.022 364.683 397.834 364.738C397.653 364.794 397.451 364.822 397.227 364.822ZM397.353 364.079C397.59 364.079 397.806 364.027 398.001 363.923C398.197 363.818 398.364 363.679 398.503 363.504C398.65 363.323 398.758 363.124 398.828 362.908C398.904 362.685 398.943 362.451 398.943 362.207V362.124H397.646C397.311 362.124 397.039 362.166 396.83 362.249C396.628 362.333 396.481 362.448 396.391 362.594C396.3 362.741 396.255 362.908 396.255 363.096C396.255 363.299 396.297 363.473 396.38 363.619C396.464 363.766 396.589 363.881 396.757 363.964C396.924 364.041 397.123 364.079 397.353 364.079ZM403.532 364.822C403.037 364.822 402.601 364.7 402.225 364.456C401.848 364.205 401.556 363.863 401.346 363.431C401.137 362.999 401.033 362.511 401.033 361.967C401.033 361.416 401.137 360.931 401.346 360.513C401.556 360.088 401.848 359.753 402.225 359.509C402.608 359.265 403.048 359.143 403.543 359.143C403.975 359.143 404.348 359.23 404.662 359.404C404.975 359.579 405.223 359.823 405.404 360.137V357.166H406.283V364.697H405.488L405.415 363.818C405.31 363.992 405.171 364.156 404.996 364.31C404.829 364.463 404.623 364.588 404.379 364.686C404.135 364.777 403.853 364.822 403.532 364.822ZM403.647 364.059C403.996 364.059 404.299 363.975 404.557 363.808C404.822 363.633 405.024 363.393 405.164 363.086C405.303 362.772 405.373 362.403 405.373 361.977C405.373 361.559 405.303 361.193 405.164 360.879C405.024 360.565 404.822 360.325 404.557 360.157C404.299 359.99 403.996 359.906 403.647 359.906C403.313 359.906 403.016 359.99 402.758 360.157C402.5 360.325 402.298 360.565 402.152 360.879C402.005 361.193 401.932 361.559 401.932 361.977C401.932 362.403 402.005 362.772 402.152 363.086C402.298 363.393 402.5 363.633 402.758 363.808C403.016 363.975 403.313 364.059 403.647 364.059Z" fill="white" fill-opacity="0.62"/>
<path d="M387.662 335.15C389.356 335.15 390.73 333.776 390.73 332.082C390.73 330.388 389.356 329.014 387.662 329.014C385.967 329.014 384.594 330.388 384.594 332.082C384.594 333.776 385.967 335.15 387.662 335.15Z" fill="#5899E2" fill-opacity="0.22"/>
<path d="M387.662 334.174C388.817 334.174 389.754 333.237 389.754 332.082C389.754 330.927 388.817 329.99 387.662 329.99C386.507 329.99 385.57 330.927 385.57 332.082C385.57 333.237 386.507 334.174 387.662 334.174Z" fill="#5899E2"/>
<path d="M345.824 164.743C362.558 163.349 372.32 159.165 379.292 159.165C379.292 167.532 377.897 175.899 377.897 184.266C382.081 192.633 387.659 198.211 390.448 203.789C387.659 212.156 384.87 217.734 384.87 226.101C383.475 234.468 382.081 240.046 382.081 247.018C379.292 253.991 377.897 260.963 377.897 267.935C375.108 276.302 372.32 284.669 372.32 295.825C372.32 308.376 379.292 315.348 387.659 318.137" stroke="#5899E2" stroke-opacity="0.22" stroke-width="1.25504" stroke-linecap="round" stroke-dasharray="4.18 5.58"/>
<path d="M167.332 114.542C164.543 136.854 156.176 156.376 150.598 170.321" stroke="#5899E2" stroke-opacity="0.14" stroke-width="0.976142" stroke-dasharray="2.79 5.58"/>
<path d="M204.98 114.542C206.375 122.909 207.769 131.276 209.164 142.432" stroke="#5899E2" stroke-opacity="0.14" stroke-width="0.976142" stroke-dasharray="2.79 5.58"/>
<path d="M309.57 159.165C315.148 160.56 320.726 161.954 326.304 163.349" stroke="#5899E2" stroke-opacity="0.14" stroke-width="0.976142" stroke-dasharray="2.79 5.58"/>
</g>
</g>
<defs>
<radialGradient id="paint0_radial_763_6" cx="0" cy="0" r="1" gradientUnits="userSpaceOnUse" gradientTransform="translate(276.1 221.1) rotate(-90) scale(312.683 390.464)">
<stop stop-color="#0ABFBC" stop-opacity="0.12"/>
<stop offset="0.65" stop-opacity="0"/>
</radialGradient>
<linearGradient id="paint1_linear_763_6" x1="0" y1="201" x2="502" y2="201" gradientUnits="userSpaceOnUse">
<stop offset="0.00199203" stop-color="#0ABFBC" stop-opacity="0.04"/>
<stop offset="0.00199203" stop-opacity="0"/>
</linearGradient>
<linearGradient id="paint2_linear_763_6" x1="251" y1="0" x2="251" y2="402" gradientUnits="userSpaceOnUse">
<stop offset="0.00248756" stop-color="#0ABFBC" stop-opacity="0.04"/>
<stop offset="0.00248756" stop-opacity="0"/>
</linearGradient>
<clipPath id="clip0_763_6">
<path d="M0 20C0 8.9543 8.95431 0 20 0H482C493.046 0 502 8.95431 502 20V382C502 393.046 493.046 402 482 402H20C8.95431 402 0 393.046 0 382V20Z" fill="white"/>
</clipPath>
<clipPath id="clip1_763_6">
<rect width="502.016" height="401.604" fill="white" transform="translate(-0.0078125 0.197998)"/>
</clipPath>
</defs>
</svg>